<svg viewBox="0 0 149.949 78.679" xmlns="http://www.w3.org/2000/svg"><g fill="#007377"><path d="m-38.078 0-8.716 21.454h5.874l1.6-4.342h7.886l1.6 4.342h5.834l-8.683-21.454zm.255 12.9 2.423-6.547 2.43 6.547z" transform="translate(77.074 33.93)"/><path d="m-45.191 0a6.918 6.918 0 0 0 -5.172 2.107l-.7-1.724h-4.47v15.8h5.619v-8.457a2.9 2.9 0 0 1 2.935-3.126 2.424 2.424 0 0 1 2.49 2.522v9.067h5.619v-9.995a5.984 5.984 0 0 0 -6.321-6.194" transform="translate(109.919 39.198)"/><path d="m-43.1 0a6.557 6.557 0 0 0 -4.693 1.852l-.7-1.468h-4.47v22.443h5.619v-7.758a6.559 6.559 0 0 0 4.246 1.5c4.31 0 7.343-3.416 7.343-8.269 0-4.885-3.033-8.3-7.343-8.3m-1.5 12.164a2.82 2.82 0 0 1 -2.841-3.033v-1.66a2.829 2.829 0 0 1 2.839-3.065c1.82 0 3.129 1.6 3.129 3.9 0 2.267-1.309 3.863-3.129 3.863" transform="translate(126.555 39.198)"/><path d="m-69.878-53.978a.754.754 0 0 1 -.8-.8v-5.2c0-3.8-2.841-6.353-7.183-6.353a20.462 20.462 0 0 0 -7.215 1.4l1.4 3.863a13.78 13.78 0 0 1 5.108-1.149c1.6 0 2.746.894 2.746 2.107v.128a16.551 16.551 0 0 0 -2.714-.255c-4.6 0-7.343 1.947-7.343 5.331 0 3.033 2.395 5.14 5.81 5.14a8.4 8.4 0 0 0 5.108-1.82 3.94 3.94 0 0 0 3.512 1.82 13.556 13.556 0 0 0 2.65-.256l-.351-4.023a5.215 5.215 0 0 1 -.734.064m-5.938-2.3a2.609 2.609 0 0 1 -2.746 2.65c-1.181 0-2.043-.7-2.043-1.628 0-1.118 1.117-1.82 2.778-1.82a10.232 10.232 0 0 1 2.011.224z" transform="translate(177.92 105.531)"/><path d="m-22.6-9.764-.7-1.98h-4.47v15.804h5.619v-7.76c0-2.267 1.341-3.831 3.48-3.831a10.274 10.274 0 0 1 1.82.191l.479-4.437a9.716 9.716 0 0 0 -1.818-.223 5.216 5.216 0 0 0 -4.41 2.236" transform="translate(138.619 51.324)"/><path d="m-13.948 0a3.094 3.094 0 0 0 -3.193 3.224 3.086 3.086 0 0 0 3.193 3.193 3.094 3.094 0 0 0 3.225-3.193 3.1 3.1 0 0 0 -3.225-3.224" transform="translate(140.954 31.825)"/><path d="m666.788-194.106h5.619v-15.8h-5.619z" transform="translate(-542.592 249.49)"/><path d="m-39.333 0c-5.268 0-9 3.416-9 8.3 0 4.853 3.735 8.269 9 8.269 5.3 0 9-3.416 9-8.269 0-4.884-3.7-8.3-9-8.3m0 12.228c-1.916 0-3.257-1.628-3.257-3.927 0-2.331 1.341-3.959 3.257-3.959s3.289 1.628 3.289 3.958c0 2.3-1.373 3.927-3.288 3.927" transform="translate(180.277 39.198)"/><path d="m-128.661 0-15.23 39.511-3.376-9.107h4.225l1.829-4.969h-7.858l-2.033-5.53h-7.006l10.9 26.924h6.6l18.943-46.829z" transform="translate(158.11)"/><path d="m0-51.143h1.238v-9.578l6.579 9.578h1.3v-11.535h-1.236v9.578l-6.581-9.578h-1.3zm11.6-2.3a2.567 2.567 0 0 0 2.718 2.506 3.341 3.341 0 0 0 2.718-1.39 1.43 1.43 0 0 0 1.5 1.39 4.324 4.324 0 0 0 .837-.086l-.1-1.03a2.825 2.825 0 0 1 -.418.051.674.674 0 0 1 -.708-.755v-4.034a2.8 2.8 0 0 0 -2.992-2.9 8.07 8.07 0 0 0 -3.088.669l.354 1a6.184 6.184 0 0 1 2.59-.618 1.783 1.783 0 0 1 1.914 1.819v.858a6.49 6.49 0 0 0 -1.753-.24c-2.22 0-3.571 1.013-3.571 2.763m1.255-.086c0-1.133.917-1.819 2.461-1.819a6.551 6.551 0 0 1 1.609.206v.7a2.307 2.307 0 0 1 -2.3 2.506 1.65 1.65 0 0 1 -1.769-1.6m9.763-8.428h-1.276v2.472h-1.624v1.089h1.625v5.029a2.278 2.278 0 0 0 2.348 2.437 5.689 5.689 0 0 0 1.56-.223l-.177-1.064a4.574 4.574 0 0 1 -1.11.172 1.328 1.328 0 0 1 -1.351-1.451v-4.9h2.461v-1.081h-2.461zm11.42 2.472h-1.292v4.7a2.453 2.453 0 0 1 -2.365 2.7 2.021 2.021 0 0 1 -2.059-2.146v-5.252h-1.27v5.441a2.9 2.9 0 0 0 2.959 3.107 3.073 3.073 0 0 0 2.831-1.734l.156 1.53h1.029zm2.686 8.342h1.27v-4.514c0-1.682.917-2.832 2.252-2.832a4.336 4.336 0 0 1 .933.12l.145-1.116a4.185 4.185 0 0 0 -.981-.137 2.518 2.518 0 0 0 -2.429 1.716l-.161-1.579h-1.034zm5.565-4.171a4.058 4.058 0 0 0 4.069 4.377 6.252 6.252 0 0 0 2.9-.807l-.4-.944a4.836 4.836 0 0 1 -2.364.7 2.925 2.925 0 0 1 -2.911-2.987h6.035c.016-.171.016-.326.016-.5 0-2.489-1.448-4.223-3.539-4.223-2.236 0-3.812 1.8-3.812 4.377m3.812-3.33c1.319 0 2.252 1.15 2.3 2.8h-4.825c.129-1.682 1.126-2.8 2.525-2.8m4.857-3.244a.828.828 0 0 0 .853.875 2.853 2.853 0 0 1 -1.174 2.077l.4.584a3.844 3.844 0 0 0 1.767-3.165c0-.807-.37-1.322-.949-1.322a.892.892 0 0 0 -.9.961m3.555 4.532c0 3.124 4.487 1.905 4.487 4.017 0 .807-.692 1.356-1.737 1.356a6.37 6.37 0 0 1 -2.509-.6l-.306 1.013a7.6 7.6 0 0 0 2.911.635c1.721 0 2.9-1 2.9-2.4 0-3.193-4.472-1.957-4.472-4.017 0-.772.66-1.287 1.673-1.287a5.634 5.634 0 0 1 2.252.549l.289-1.013a6.726 6.726 0 0 0 -2.638-.584c-1.673 0-2.847.978-2.847 2.334m10.7 6.214h1.351l1.19-3.158h5.067l1.183 3.155h1.351l-4.451-11.535h-1.239zm5.067-9.921 2.155 5.682h-4.314zm6.836 9.921h1.271v-4.7a2.453 2.453 0 0 1 2.364-2.7 2.026 2.026 0 0 1 2.053 2.161v5.235h1.287v-5.441a2.916 2.916 0 0 0 -2.976-3.107 3.033 3.033 0 0 0 -2.811 1.734l-.161-1.528h-1.031zm9.039-6.214c0 3.124 4.488 1.905 4.488 4.017 0 .807-.692 1.356-1.737 1.356a6.371 6.371 0 0 1 -2.509-.6l-.306 1.013a7.6 7.6 0 0 0 2.911.635c1.721 0 2.9-1 2.9-2.4 0-3.193-4.472-1.957-4.472-4.017 0-.772.66-1.287 1.673-1.287a5.634 5.634 0 0 1 2.252.549l.289-1.013a6.726 6.726 0 0 0 -2.638-.584c-1.673 0-2.847.978-2.847 2.334m18.4-2.128h-1.3l-1.914 6.729-1.941-6.736h-1.206l-1.914 6.729-1.93-6.729h-1.286l2.557 8.342h1.255l1.93-6.729 1.914 6.729h1.255zm1.158 4.171a4.058 4.058 0 0 0 4.069 4.377 6.253 6.253 0 0 0 2.9-.807l-.4-.944a4.836 4.836 0 0 1 -2.364.7 2.925 2.925 0 0 1 -2.911-2.987h6.048c.016-.171.016-.326.016-.5 0-2.489-1.448-4.223-3.538-4.223-2.236 0-3.812 1.8-3.812 4.377m3.812-3.33c1.319 0 2.252 1.15 2.3 2.8h-4.825c.129-1.682 1.126-2.8 2.525-2.8m5.549 7.5h1.27v-4.514c0-1.682.917-2.832 2.252-2.832a4.339 4.339 0 0 1 .933.12l.145-1.116a4.182 4.182 0 0 0 -.981-.137 2.518 2.518 0 0 0 -2.429 1.716l-.161-1.579h-1.029z" transform="translate(30.28 129.616)"/></g></svg>