<svg viewBox="0 288.3 612 215.5" xmlns="http://www.w3.org/2000/svg" xmlns:xlink="http://www.w3.org/1999/xlink"><clipPath id="a"><path d="m-105.6 247.4c-7 .7-13.2 4.8-16.3 11.2 1.9 1.3 10.8 6.7 11.4 8.1 2.7 6.8-6.8 6-6 10.1 1.7 8.3 17.7 19.6 2.1 24.8-2.2 2-3.2 5-2.7 8.1 1.6 13.2-1.4 25.1-4.5 37.9l1.4.8c.3 8.9-.8 16.9-.6 25.6l-.8.8c-1.1-1-2.1-1.9-3.1-2.9-9.1-4.3-18.3-14.9-28.8-8.5-.6-.9-1.3-1.8-1.9-2.7-11.1-1.3-20.7 7.6-31.2 6.8-6.3-.5-7-7.1-13.4-7-5 .1-12.6 6-16.8 8.3-2.4.8-4.7 2.3-6.6 4.3-2.9 3.5-5.6 6.8-8.3 10.5-2.2 2.7-4.2 5.5-6 8.3-.9 2.3-2 4.4-3.5 6.4-1 1.4-2.2 3.4-3.1 5-.3.3-.6.5-1 .8-2.3-7.5-3.1-15.5-8.1-22.1-.9-2.1-1.8-3.8-2.9-5.8-.5-.9-.8-1.9-1-2.9-2.8 3.2-6.3 5.8-10.3 7.4-2.3 4.4-4.5 8.6-6.8 13.2l-.4 1c-3.6-6-6-13.4-8.5-20.1-3.5-8.1-11.5-18.4-19.7-17.6-3.7.3-25.9 16-25.6 15.5 5.1.8 7.7 4.3 7.6 9.5.5 2.1.6 4.1.2 6.2 2.6 15.8-22.3 24.1-28.8 8.5-.7-1.2-1-2.5-1-3.9 1.8-.4 3.5-1.2 5-2.3 4.7-1.9 9.2-4.1 13.6-6.8l1-1c-5.9-8.4-17.7-19.7-28.5-14.3l.2 1c-2.2 3.5-3.3 7.4-3.3 11.6l.6-.2c-.1 2.6-.8 5.2-2.1 7.6.7.1 1.4.3 2.1.6.2 2.6.4 5.1.6 7.7 3.6 6.1 9.7 10.6 15.9 14.7 5.5 1.1 11.1-.8 15.5-5 .9-.7 1.7-1.4 2.5-2.1 2.1-1.6 4.4-2.9 6.8-4.1-.3 4.3-1 8.8-1.9 12.8 1-.2 2 0 2.9.6 3.9.6 8.5.1 12.2-1.4-.6-.5-1.3-1-1.9-1.5-.6-.6-1-1.3-1.2-2.1-1.3-2.4-1.8-5.2-1.5-7.9l-1.4-.4c0-1.1.1-2 .2-3.1 1.1-5.9 1.4-12.1 1.2-18 5.1-7.5 24.9-23.2 25-3.9v-.5c.1 5.8.5 11.5 1.4 17 .4-.8 1-1.2 1.7-1 .6 1.9 1.1 3.8 1.5 5.6 0 1.8.3 3.7.8 5.4l.6.6c0 2.2.2 4.7.6 7 .1 1.9.3 3.7.6 5.4 2.4-2.2 5-3.3 8.1-3.5.6-1.8.9-3.6 1-5.4.6-1.4.9-3 1-4.5.9.1 1.6.1 2.5-.2-.1-1.2.1-2.3.8-3.3 1.6-2 3.7-3.3 6.2-3.7 1.6 2.7 2.8 5.7 3.7 8.9 2.1 5.1 4.2 10.2 6.4 15.1 2.6-.3 4.5-1.7 5.6-4.3.7-1.6 1.7-2.8 3.1-3.9.4 1.2 1.1 1.8 2.3 1.7 0-3.6.9-7.3 2.5-10.5 2.1-3.5 3.9-6.6 6-10.1 1.1-2.3 2.5-4.4 4.3-6.4 2.7-6.4 6.9-10.9 13.4-8.3-1.5 4.1-4 7.6-7.4 10.6.5 1.1 1.3 1.6 2.5 1.4-.2 2.2-.7 4.7-1.4 7-.3 1.1-.6 2.2-1 3.3.7 1.5 1.2 3 1.5 4.6 16.4 30.2 40.7 4.6 36.6-20.5l-1.5 1.4c-.5-1.4-.9-2.5-1.4-3.9s-.8-2.5-1.2-3.9v-.8c5.8-2.3 11.4-3.9 17.4-4.3-2.8 5.8-4.9 12.7-4.8 19.4-.9 5 1.2 8.2 6 9.5 5.2 3.9 9.9 4 13.4-1.4 1.6-3.1 2.3-6.5 2.1-10.1.2-1.8.2-3.7 0-5.4l.4-.6c-3-10.7 3.7-15.8 13.7-12.6-.4.9-.2 1.7.8 2.3-.8 1.3-1.4 2.6-1.9 4.1-.1.9-.6 1.6-1.4 2.1-2.5 4.7-4.3 9.9-5 15.1l.8.2c0 .3 0 .5.2.8 1.9 1.4 4.1 3.5 5.6 5.2 7 6.2 16.8 4.8 23-2.1.6 4.3 1.2 9.3 1.5 13.4 0 2.1.1 4.1.4 6.2-.4 1.4-.3 2.8.4 4.3 5.2 1.7 10.1 3.9 14.9 6.6-9.9-12.1-12.1-16-12.2-32.3.2-.8.3-1.5.2-2.3-.1-1.3-.1-2.5 0-3.9 0-2 0-4.3.2-6.2.3-2.1.6-4.3 1-6.4.2.2.5.4.8.6.2-2.8-.1-6-.6-9.1 1.4-22.6-2.1-47.7 7.9-68.5 4.8-3.5 6.2-7.6 2.9-12.2-23.2-9.4 8.9-21.1-16.3-30.8 4.2-4.3 8.9-8.8 9.1-2.3.9.1 1.7 0 2.5-.2 1.2-3.1.5-6-2.3-7.5zm-53.2 149.3c-9.4-8.1-7.8-19.4 1.5-26.7.8.6 1.4 1.5 1.4 2.5v24.4zm-192.5-9.1c-.5-1-.9-2.4-1-3.7-.8-4.5-1.1-9.1-.8-13.7 3 0 5.8 1 8.1 2.9 2.3 1.7 3.2 3.9 2.9 6.6.8-.2 1.7-.4 2.5-.6.7.3 1.2.8 1.5 1.5-.9 1.1-2 2.1-3.3 2.9-2.9 2.3-6.4 3.8-10.1 4.3zm139.1 18c-1.8-4.6-1.9-10.1-.2-15.1 5.6-11.6 13-23.1 21.3-7.6 9.7 18.2-7 22.4-21.1 22.7zm81.1-7.1c-4.7-.9-7.7-4.3-7.9-8.9.7-12.6 11.8-19.1 16.7-4.6.8 3.5.7 7.2-.4 10.6-1.6 1.5-3.2 2.7-5 3.9-1.1-1.2-2.1-1.4-3.4-1zm-298-89.5c-.8.1-1.6.4-2.3.8 8.6 3.8 7.2 10.6 1.2 16.5 0 3.9 1.9 7.2 5.2 9.3 6.3 17.8 7.2 33.5 7.6 52.1v10.8c-.6 2.9-.9 6-1 8.9.9-.4 1.9-.5 2.9-.2.1 2.3 0 4.7-.2 7 .1 5.9 0 11.9-.2 17.8 11.4 2.4 36.4 3.5 46.1-9.5 2.1-3.8 3.2-8.1 3.3-12.6 3.5-17.2-2.1-34.8-4.6-51.7 1.3-2.1 1-4.2-.8-6-1.8-2.8-3.5-5.5-5.2-8.3l-2.1.2c-13.3-22.6-24.2-12.9-44.1-19.4h1.5c3.3-6.3 4.2-12.3-2.7-14.9-1.5-.8-3-1.1-4.6-.8zm21.3 117.1c-.8-1.6-1.1-3.4-.8-5.2.5-12.9.4-25.9.4-38.9l1.7-.6c-1.9-4.9-3.7-9.9-5.4-14.9l1.5-1.2c-.8-2.9-1.5-5.9-1.9-8.9-1.2-6-2.1-12-2.9-18 21.7-5.1 31.4 13 36.6 31 .9 5 1.7 10.1 2.5 15.1-1 3.6-3.3 7.4-6.4 10.3-1 1.9-1.6 4-1.7 6.2-2.9 19.2-.8 23.6-23.6 22.8zm-79.2-109c-17.2 25.9-20.8 50.5-26.3 80.3-8.9-5.7-16-1.4-19.7 7.6-.3.5-.6.9-1 1.4-4.1-4.5-6.6-10.3-7.9-16.5-.6-3.4-1.4-6.7-2.3-9.9-1.2-6.7-2.6-13.4-4.8-19.7-.3-8.7-9.1-13.8-16.8-12.4-.2 1.1 0 2.1.6 3.1l1.2-1c12.3 10.8 14.1 35.5 18.4 50.7.1 1.3.4 2.5 1 3.7.6 3.6 1.5 7.2 2.7 10.6v-1.4c.5 2.6 1.2 5 1.9 7.6 3.1 10.1 3.5 20.7 7.6 30.6 1.7.3 3.7 0 5.4-.8.9-16.1 1.1-32.8 4.5-48.4 6.6 7.7 10 18 14.3 27.3 2.8 7.1 3.7 16.2 12.2 16.3-4.4-8.6-3.5-18.1-2.7-27.5.7-14.4 1.7-28.9 1.9-43.2-.2-11.2-2.2-23 2.9-33.7l.6.2c3.3-7.5 7.2-14.5 11.4-21.7l1.4.2c.9 1.5 1.4 3.1 1.5 4.8-1.1.8-1.1 1.8-.2 2.9 1.2 0 2.4-.4 3.5-1 .8-3.3.3-6.4-1.5-8.9l-.6.4c-3-2-6.2-2.7-9.2-1.6zm42.8 21.1c-5.9 4.2-11.1 9.7-17.8 12.6 1.9 20.8 5.7 40.6 6.2 61.6-.2.6-.3 1.3-.2 1.9-.1 2.1-.2 4.3-.4 6.4-.6 3.4-.1 6.7 1.7 9.5 10.3-1.6 21.5 1.1 32.1.4-.2-.7-.5-1.4-.8-2.1l1.4.8c-1.4-2.2-2.3-4.9-2.5-7.6-.6-1.3-1-2.7-1.4-4.1-.5-3.3-.9-6.7-1.2-9.9-.4-.6-.6-1.4-.6-2.1v-.6c-3.2 2.3-6.2 5.5-8.3 9.1-1.3 5.5-5.4 8-11.2 7.7-1.6-11-.2-23.1.4-34.1-.2-2.7-2.3-10.2-1.9-16.1-.3-6.4-.4-12.6.2-19 .2-2.5 1.6-4.7 3.9-6 0 2-.1 4.8-.4 7 7.1-3.4 9.4-11.9.8-15.4zm-231.5 1.8c-2.9.9-4.7 2.7-5 5.6 4.8 6.3 15.8 6.8 13.9 15.5-2.4 2.8-2.3 5.5.6 7.7 21 10 31.2 0 35.4 27.7 1 4.5 1.8 8.8 2.5 13.4 1.4 8.7 3.4 18.1-1.2 26.1-.4.6-.7 1.2-1 1.9.9-1.3 2.1-2.4 3.3-2.9 1.2 3.3 1.4 6.8.6 10.3.3 2.3-.3 4.4-1.7 6.2l1.2 1c-1.6 3.8-4 7.1-7 9.9 20-1.6 58.2-6.6 48.4-35.8-.3-.5-.5-1-.6-1.5-.5-5.3-1.4-10.1-2.9-15.7-2.2-3.9-6.2-6.6-11.2-8.1 8-8.8 8.1-26.2-6-28.5-9-2.7-15.5-9.4-24.8-10.8-10.2-1.6-18.3 4.7-28.1-.8-2.3-2.6-1.4-5.6 1.4-8.5-7.1-5.4-24.3-.8-19.2-11.8l-.2-.2zm56.5 61.2c-2-6-4.2-12.2-5.4-18.2l.8-.2c0-3 .3-6.2.8-9.1 12.8-.6 21.8 7 16.8 19.9-3.1 4.2-7.8 7-13 7.6zm8.5 45.1c-1.4-4.7-2.4-9.5-2.9-14.3-.9-5.5-2-10.9-3.3-16.3.9-7.9 7.3-7.9 10.8-1 .3 1.3.5 2.6.8 3.9.1.6.3 1.3.4 1.9.4 1.9.8 3.9 1.2 5.8 2.6 9.1 6.1 19.2-7 20zm142.5-102.4c-3.6 4-7.6 7.4-12.2 10.1-3-3.6-6.8-5.4-11-4.8 1.1 1.7 2 3.5 2.7 5.4 1.7 7.6 3.1 15.1 4.5 22.7 1.3 6.4 1.4 13.1.6 19.6l.2 1.5c.8-.2 1.5-.2 2.3-.2.5 5.9.6 11.7.6 17.6.2 2.8.2 5.7.2 8.5.7 8.1 1 18.2 5.4 24.2 3.8-4.2 9.3-5.7 15.3-4.8-4-9-8.2-19.7-8.5-29.8v-.9l-.2.8c-.1-1.6-.2-3.1-.2-4.6-.5-2-.8-4.1-1-6.2-.9-13.7-2.5-28.5-.8-42.6.4-2.5.7-5.2 1-7.7.4-2.6.7-5.2 1-7.7l.4-1-.4-.4zm-149.7 2.1c1 .9 1.6 2.1 1.5 3.5-.9-.1-1.7.1-2.3.8 2.8.5 4.1 2 3.1 4.6.6-1.3 1.5-2.5 2.5-3.5.8.4 1.5.8 2.3 1.2-1.3-2.2-1.5-4.4-1-7-.6 1.1-1.5 2.1-2.5 2.7-1.4-1-2.8-1.9-4.3-2.7zm296.5 6.6c-.1.8 0 1.5.4 2.1.7.2 1.4.2 2.1.2.4-.7.5-1.4.2-2.1-.8-.2-1.5-.4-2.3-.6zm250.9 19.1c-.3.5-.3 1.2 0 1.7 1 .4 1.6.1 1.7-1-.4-.5-1-.8-1.7-.7zm-20.7 5.5c-2.9.7-5.5 2.8-7.4 5.6 3-.5 5.7.3 7.9 2.3 1.6-1.9 3.5-3.2 5.8-3.9l-.6-.6.4.2c-.7-.6-1.1-1.3-1.4-2.1l.6-1c-1.7-.4-3.5-.6-5.3-.5zm15.5 9.1c-.2 1.2 0 2.3.6 3.3 1.1.4 2.3.5 3.5.2l.6-2.7c-1.5-.7-3.2-1.1-4.8-1.2zm-503.4.3c-.1.8 0 1.5.4 2.1.8.2 1.5.2 2.3.2.4-.7.5-1.4.2-2.1-1-.4-2.1-.5-2.9-.2zm-63.3 1c-.4.7-.5 1.4-.4 2.1.7.4 1.4.5 2.1.4.4-.9.5-1.9.4-2.7-.7-.1-1.4 0-2.1.2zm563 1.6-3.9 3.9c-1 .8-2 1.7-2.9 2.7-1.8-1.3-3.9-2.6-5.8-3.9-.3 1.5 0 2.8 1 3.9 1.9 2.4 1.8 5.1 0 7.7-.4.5-.5 1-.2 1.5 1.8-.8 3.4-1.8 4.8-3.1 1.8 2.1 3.9 4.2 6.2 6-1.1-1.6-1.5-3.4-1.2-5.2 1-2.4 3.2-4 6-4.6-1.6-1.1-3.5-1.5-5.4-1 .3-2.4 1.1-4.7 2.3-7 .2-.6.3-1.2.4-1.7zm-488.7 2.7c-3.1-.1-6.3.1-9.3.8-.8 6.4-2.5 12.8-4.6 19h1c-.2 2.1-.4 4.5-.6 6.6-.1 6.8 3.3 12.8 7.9 17.6 10.4 4.7 30.9 2.3 21.1-13.6l-.6 1.2c-.4 1.3-.4 2.5-.2 3.9-2.2 7.8-14.9 4.9-19-1.7 8.1-3.6 15.8-8.1 24.6-9.3-3.3-6.8-5.8-17.2-8.3-22.7v-.7c-3.9-1.2-8.2-1.6-12-1.1zm-6 26.3v-.6c.4-7.7 5.3-13.3 10.5-18.8 1.8 2.3 3.4 4.9 4.6 7.6 1.1 1.1 2.1 2.5 2.7 3.9-2.4.6-4.9 1.1-7.4 1.5l.6 1c-3.1 2.2-6.5 4.3-9.9 6.2zm-65.4-25.2c-.3.6-.3 1.2 0 1.7 1 .4 1.6.1 1.7-1-.4-.6-1-.8-1.7-.7zm338.2 6.6c-.3.6-.3 1.2 0 1.7 1 .4 1.6.1 1.7-1-.4-.6-1-.8-1.7-.7zm-4.6.8c-3.6 2.9-1.9 4.5 3.1 4.8 1.1-2.8 0-4.5-3.1-4.8zm171.1 13.5c-.2 1.4-.1 2.9.4 4.1 1.9-.8 3.7-1.8 5.4-2.9-1.9-.6-4-1-5.8-1.2z"/></clipPath><radialGradient id="b" cx="11903.977" cy="21139.248" gradientTransform="matrix(1.9300001 -.15230103 .15230103 1.9300001 -26602.014158 -38687.668761)" gradientUnits="userSpaceOnUse" r="156.72"><stop offset="0" stop-color="#552358"/><stop offset=".1" stop-color="#511f53"/><stop offset=".2" stop-color="#4c1b4e"/><stop offset=".3" stop-color="#481649"/><stop offset=".4" stop-color="#441345"/><stop offset=".5" stop-color="#410f40"/><stop offset=".6" stop-color="#3e0d3d"/><stop offset=".7" stop-color="#3b0a39"/><stop offset=".8" stop-color="#390837"/><stop offset=".9" stop-color="#380735"/><stop offset="1" stop-color="#370634"/></radialGradient><g clip-path="url(#a)" transform="translate(680.617 40.88)"><path d="m-671.9 272.1h612v215.3h-612z" fill="url(#b)" transform="translate(-8.7 -24.724)"/></g></svg>