<svg enable-background="new 0 0 220.6 74.7" viewBox="0 0 220.6 74.7" xmlns="http://www.w3.org/2000/svg"><g transform="translate(-7657.182 -2446)"><path d="m7877.7 2502.4c-.4-3.6-1.9-7-4.2-9.8-2.8-3.6-6.1-6.8-9.8-9.4-7.8-5.6-16.2-10.5-25-14.5-12.9-6-26.1-11.2-39.7-15.5-8.3-2.7-16.7-5-25.2-6.7-2-.4-4.1-.6-6.2-.7-.7 0-1.3 0-1.9.1-3.4.4-6.9 1-10.2 1.8-8.9 2.1-17.7 4.7-26.4 7.8-12.4 4.2-24.5 9.1-36.2 14.8-7.6 3.6-14.8 7.9-21.6 12.9-3.9 2.8-7.3 6.1-10.2 9.9-3.6 4.9-4.6 10.3-3.1 15.8.7 3 2.3 5.7 4.5 7.8 2.4 2.3 5.6 3.7 8.9 3.6 1.8 0 3.5-.3 5.2-.9 5.2-1.7 10.3-3.9 14.7-5.7 2.8-1.2 5.8-2.4 8.5-3.6 7-3 14.2-6 21.3-8.8 9.5-3.8 19.2-7 29.1-9.4 5.5-1.4 11.2-2.1 16.9-2.2h.4c.7 0 1.9 0 3.3.2 5.9.6 11.8 1.7 17.6 3.3 9.1 2.5 18.1 5.6 26.9 9 6.7 2.6 13.4 5.3 19.8 8 3.8 1.6 7.7 3.1 11.6 4.7l1.3.5c3.7 1.5 7.5 3 11.5 4.2 1.4.4 2.9.7 4.5.7 3.6 0 7-1.5 9.4-4.2 3.3-3.4 4.9-8.6 4.3-13.7zm-6.4 12.2c-1.9 2.1-4.6 3.4-7.4 3.4-1.3 0-2.5-.2-3.7-.6-4.3-1.3-8.4-3-12.5-4.6-10.5-4.2-20.9-8.6-31.4-12.7-8.9-3.5-18-6.6-27.2-9.1-5.9-1.6-11.9-2.8-18-3.4-1.3-.1-2.7-.2-3.6-.2h-.4c-5.9.1-11.8.8-17.5 2.2-10 2.5-19.9 5.7-29.5 9.5-10.1 3.9-20 8.2-29.9 12.4-4.8 2-9.6 4-14.6 5.7-1.4.5-2.9.7-4.4.8-2.6 0-5.2-1-7.1-2.9-1.8-1.8-3.1-4.1-3.7-6.6-1.3-4.7-.3-9.7 2.7-13.5 2.7-3.6 5.9-6.7 9.6-9.4 6.7-4.9 13.8-9.1 21.2-12.6 11.6-5.7 23.6-10.6 35.9-14.7 8.6-3 17.3-5.6 26.1-7.7 3.2-.8 6.5-1.4 9.8-1.8.5 0 1.1-.1 1.7-.1 1.9 0 3.8.2 5.7.6 8.4 1.7 16.8 3.9 24.9 6.6 13.5 4.2 26.6 9.4 39.4 15.3 8.6 3.9 16.9 8.7 24.6 14.2 3.5 2.5 6.6 5.5 9.3 8.9 2 2.4 3.3 5.3 3.7 8.4.6 4.3-.8 8.7-3.7 11.9z" fill="#fff"/><path d="m7868.3 2494.7c-3.5-3.9-7.6-7.3-12.1-10.1-7-4.5-14.3-8.5-21.9-11.9-4.7-2.2-9.5-4.3-14.7-6.3-3-1.2-6.1-2.4-9.6-3.6-2.3-.8-4.9-1.7-7.5-2.6-4.5-1.5-9-2.9-13.9-4.3-4.7-1.4-9.7-2.6-14.9-3.7-2-.5-4-.7-6-.8h-.5c-3.3.2-6.6.8-9.8 1.6-8.6 2-17.1 4.5-25.4 7.4-13.5 4.5-26.7 10-39.5 16.4-5.7 2.9-11.2 6.1-16.5 9.8-3.8 2.6-7.2 5.7-10.2 9.3-2.7 3.5-4 7.4-2.9 11.9.2 1 .6 1.9 1 2.7 1.6 3.1 4.2 4.9 7.3 4.9 1.1 0 2.2-.2 3.2-.5 5.9-2 11.6-4.4 17.4-6.8 9.4-4 18.7-8 28.1-11.6 9.3-3.7 18.9-6.8 28.6-9.2 5.8-1.5 11.8-2.2 17.8-2.3h.4c5.9.1 11.8.9 17.6 2.3 8.9 2.1 17.6 4.8 26.2 8 11.4 4.2 22.6 8.9 33.8 13.5 5.3 2.2 10.6 4.4 16 6.2 1 .3 2.1.5 3.2.5 3.2 0 5.8-1.8 7.4-5.1.9-1.8 1.3-3.8 1.3-5.8 0-.8-.1-1.6-.3-2.4-.4-3-1.8-5.4-3.6-7.5z" fill="#1a1917"/><path d="m7746.3 2473.1c-.7-1.9-1.3-3.8-1.9-5.6-.4-1.2-.8-2.3-1.2-3.5-.1-.3-.1-.5.3-.6 1.3-.3 2.7-.7 4-1.1.3-.1.5-.1.6.3 1.6 5.7 3.1 11.4 4.9 17 0 .2.2.4 0 .6s-.6.3-.9.2c-2.1-.8-4.1-1.5-6.2-2.3-3.1-1.2-6.1-2.5-9.1-3.7-.2.2 0 .3 0 .5.9 2.8 1.9 5.7 2.9 8.5.2.5.1.6-.4.7-1.3.3-2.6.6-3.8 1-.4.1-.6.1-.7-.4-1.6-5.6-3.1-11.2-4.7-16.8-.1-.3-.3-.5 0-.9.3-.2.6-.2.9-.1 5 1.9 9.9 3.9 14.8 5.9.1.1.3.2.5.3zm62.5 9.3c.6-.8 1.1-1.6 1.5-2.5 1.4-2.9 2.5-5.9 3.7-8.9.2-.4 0-.5-.3-.6-1.4-.5-2.8-.9-4.1-1.4-.4-.2-.6-.1-.8.4-1 3-2.2 5.8-3.4 8.7-.4.9-.9 1.7-1.5 2.4-1.2 1.1-2.9 1.4-4.3.5-1.3-.7-1.9-2.2-1.6-3.6 0-.3.1-.5.1-.8 1-3.2 2.2-6.4 3.7-9.4.2-.3.2-.4-.2-.6-1.5-.5-3-1-4.5-1.6-.3-.1-.5 0-.6.3-.2.5-.4 1-.6 1.5-1.3 2.8-2.4 5.8-3.2 8.8-.9 3.4.1 6.3 2.7 8.1 1.9 1.3 4.2 2.1 6.5 2.1 2.6.1 5.2-1.2 6.9-3.4zm19.8-4.2c-.7-1-1.6-1.9-2.7-2.5-2.6-1.5-5.3-2.8-8.1-3.9-.3-.1-.3 0-.4.2-1.2 2.8-2.5 5.6-3.9 8.3-1.3 2.6-2.4 5.2-3.8 7.7-.2.4 0 .4.2.4 1.4.6 2.8 1.2 4.2 1.8.4.2.5.1.6-.3 1.8-4.3 4-8.4 5.9-12.6.1-.2.2-.3.4-.2.7.3 1.4.8 2 1.4.5.5.5 1.3.1 1.9-.3.4-.7.8-1.2 1-1 .5-2 .8-3.1.8-.4 0-.6.1-.5.6.8 3.5 1.5 7 2.2 10.5 0 .3.1.4.5.3 1.6-.4 3.1-.7 4.7-1 .5-.1.4-.3.3-.6-.8-2.2-1.5-4.4-2.2-6.6-.1-.5-.2-.6.4-.8 1.2-.2 2.4-.8 3.4-1.5s1.6-1.9 1.7-3.1c0-.4-.2-1.1-.7-1.8zm-53.2-3.5c-3.6-4.9-7.1-9.8-10.7-14.7-.6-.8-.9-.8-1.4.1-3.1 5.6-6.2 11.2-9.2 16.9-.2.3-.2.4.2.6 1.3.6 2.7 1.2 4 1.9.4.2.5.1.7-.3.5-1.3 1.1-2.5 1.7-3.8.1-.3.4-.5.7-.5 2.3-.2 4.6-.4 6.8-.6.4-.1.7.1.9.5l2.6 3.9c.1.2.2.4.6.2 1.4-.9 2.9-1.8 4.4-2.7-.6-.6-1-1-1.3-1.5zm-11.2-7.7c.8 1.2 1.5 2.4 2.3 3.7-1.4.1-2.7.2-4.2.4.7-1.4 1.3-2.7 1.9-4.1zm-71.9 34.3c0 .4 0 .5.5.5 1.5.1 2.9.2 4.4.3.4 0 .5-.1.5-.4 0-1.3 0-2.7-.1-4 0-.5.1-.7.5-.9 2-1 4-2 6.1-3.1.2-.1.5-.1.8 0 1.4.9 2.8 1.9 4.2 2.8.3.2.4.2.6-.1.6-.9 1.3-1.8 1.9-2.7.3-.4.9-.9.8-1.3s-.8-.5-1.3-.8c-5.5-3.2-10.9-6.7-16.5-9.8-.6-.4-1-.2-1.1.5-.5 5.4-.8 10.9-1.2 16.4 0 .9-.1 1.7-.1 2.6zm5.1-8.4c0-1.5 0-2.9.1-4.4 1.2.9 2.4 1.7 3.6 2.5-1.3.7-2.4 1.3-3.7 1.9zm146.4 10.2c.6 0 1.2-.1 1.7-.1s1.2 0 1.5-.2c.3-.3 0-1-.1-1.5 0-.1 0-.2 0-.3-.6-5.9-1.1-11.8-1.9-17.7-.1-.8-.5-1-1.1-.6-5.7 3.5-11.3 7.2-17 10.9-.3.2-.3.3-.1.6.9 1.1 1.7 2.3 2.5 3.5.2.3.4.3.7.1 1.1-.9 2.3-1.8 3.5-2.7.2-.2.6-.3.9-.1 2.1.9 4.2 1.7 6.3 2.5.4.1.6.4.5.8 0 1.5.2 3 .2 4.5 0 .5.1.7.6.6zm-2.7-9.4c-1.2-.5-2.5-1-3.8-1.5 1.2-.9 2.4-1.8 3.8-2.7zm-154.3 4.6c.3-.1.5-.2.2-.6-.5-.9-1-1.8-1.5-2.7-.2-.4-.4-.4-.7-.2-1.1.6-2.2 1.1-3.3 1.7-.3.2-.5.2-.7-.2-.4-.8-.8-1.6-1.2-2.3-.2-.4-.2-.5.2-.8 1.4-.6 2.8-1.3 4.2-1.9.4-.2.4-.3.2-.7-.5-.9-1-1.8-1.5-2.7-.2-.4-.4-.4-.8-.2-2.9 1.5-5.8 2.9-8.8 4.4-.4.2-.4.3-.2.6 2.8 5.2 5.5 10.4 8 15.6.1.2.2.3.5.2 3.2-1.3 6.5-2.7 9.8-4 .3-.1.5-.3.2-.6-.6-.9-1.1-1.9-1.6-2.9-.2-.4-.4-.4-.8-.2-1.5.7-3 1.4-4.5 2.1-.3.1-.5.1-.6-.2-.5-.9-.9-1.8-1.3-2.7 1.5-.5 2.9-1.1 4.2-1.7zm23.1-18.1c1.9 4 4 8 5.7 12.1.1.3.2.4.6.3 1.5-.6 3-1.3 4.5-1.8.3-.1.3-.2.2-.5-2.2-3.9-4-7.9-6-11.9-.2-.4-.1-.6.3-.7 1.8-.6 3.4-1.4 5.2-1.9.3-.1.4-.2.2-.5-.4-.9-.9-1.7-1.3-2.6-.5-1-.5-1-1.5-.5-5 2.4-10.2 4.5-15.5 6.3-.3.1-.4.2-.2.5.5 1 1 2.1 1.5 3.2.2.4.3.4.7.2 1.6-.8 3.3-1.5 4.9-2.2.1 0 .2-.1.4-.2.3-.2.3 0 .3.2zm83.5-16.8c-5.7-.9-11.4-2.1-17-3.6-.4-.1-.4 0-.5.3l-.8 3.4c-.1.4 0 .5.4.5l5.4.9c.4 0 .5.2.4.6-1.1 4.3-2 8.6-3.3 12.9-.1.3-.1.4.3.5 1.6.3 3.2.7 4.9 1 .3 0 .4 0 .4-.3.8-4.3 1.9-8.5 2.9-12.8.1-.6.4-.6.9-.5 1.8.4 3.6.9 5.3 1.3.2 0 .3.1.4-.1.3-1.3.6-2.6.9-3.8-.1-.3-.1-.3-.6-.3zm63.3 25.5c-.3-.1-.4 0-.5.3-2.6 5.3-5.2 10.6-8 15.7-.1.3-.1.4.1.5 3.2 1.5 6.4 3 9.7 4.5.3.2.4.1.6-.2l1.6-3.2c.2-.3.1-.4-.2-.6-1.5-.6-3.1-1.3-4.6-1.9-.4-.1-.4-.3-.2-.6 2.1-4.1 4.2-8.2 6.4-12.2-1.7-.9-3.3-1.6-4.9-2.3z" fill="#fdfdfd"/><path d="m7875 2502.7c-.4-3.1-1.7-6-3.7-8.4-2.7-3.4-5.8-6.4-9.3-8.9-7.7-5.6-15.9-10.3-24.5-14.2-12.8-6-25.9-11.1-39.4-15.3-8.2-2.7-16.5-4.9-24.9-6.6-1.9-.4-3.8-.6-5.7-.6-.5 0-1.1 0-1.7.1-3.3.4-6.6 1-9.8 1.8-8.9 2.1-17.5 4.8-26.1 7.7-12.3 4.1-24.2 9.1-35.9 14.7-7.5 3.5-14.6 7.8-21.2 12.6-3.7 2.6-6.9 5.8-9.6 9.4-3 3.8-4 8.8-2.7 13.5.6 2.5 1.9 4.8 3.7 6.6 1.9 1.9 4.4 2.9 7.1 2.9 1.5 0 3-.3 4.4-.8 4.9-1.7 9.8-3.6 14.6-5.7 10-4.2 19.9-8.5 29.9-12.4 9.6-3.9 19.4-7.1 29.5-9.5 5.7-1.4 11.6-2.2 17.5-2.2h.4c.9 0 2.2.1 3.6.2 6.1.6 12.1 1.7 18 3.4 9.2 2.5 18.3 5.6 27.2 9.1 10.5 4 20.9 8.5 31.4 12.7 4.1 1.7 8.2 3.4 12.5 4.6 1.2.4 2.4.6 3.7.6 2.8 0 5.6-1.2 7.4-3.4 3-3.3 4-7.4 3.6-11.9zm-3.9 7.5c-1.6 3.3-4.2 5.1-7.4 5.1-1.1 0-2.2-.2-3.2-.5-5.4-1.8-10.7-4-16-6.2-11.2-4.6-22.4-9.3-33.8-13.5-8.5-3.2-17.3-5.9-26.2-8-5.8-1.4-11.7-2.2-17.6-2.3h-.5c-6 .1-11.9.9-17.8 2.3-9.7 2.4-19.3 5.5-28.6 9.2-9.5 3.6-18.8 7.7-28.1 11.6-5.8 2.4-11.5 4.9-17.4 6.8-1 .3-2.1.5-3.2.5-3.1 0-5.7-1.7-7.3-4.9-.4-.9-.8-1.8-1-2.7-1.2-4.5.1-8.4 2.9-11.9 2.9-3.6 6.4-6.7 10.2-9.3 5.2-3.7 10.7-7 16.5-9.8 12.8-6.4 25.9-11.8 39.5-16.4 8.3-2.9 16.8-5.4 25.4-7.4 3.2-.8 6.5-1.3 9.8-1.6h.5c2 .1 4 .3 6 .8 9.7 2 19.3 4.7 28.7 8 10.8 3.6 21.4 7.8 31.8 12.5 7.6 3.4 14.9 7.4 21.9 11.9 4.5 2.8 8.5 6.2 12.1 10.1 1.9 2 3.2 4.5 4 7.2.1.8.2 1.6.3 2.4-.2 2.2-.6 4.2-1.5 6.1z" fill="#ff8f1c"/></g></svg>