<svg viewBox="0 0 279.99 69.05" xmlns="http://www.w3.org/2000/svg" xmlns:xlink="http://www.w3.org/1999/xlink"><clipPath id="a" transform="translate(-.01)"><path d="m0 0h280v69.05h-280z"/></clipPath><path d="m115.86 18.49h6.81v33.71h-6.81v-14.44h-14.49v14.44h-6.81v-33.71h6.81v14.05h14.49z" fill="#414042" transform="translate(-.01)"/><g clip-path="url(#a)"><path d="m130.35 48.77a13.34 13.34 0 0 1 -3.91-10 13.09 13.09 0 0 1 4-9.95 14.7 14.7 0 0 1 19.66 0 13.09 13.09 0 0 1 4 9.95 13.22 13.22 0 0 1 -4 10 13.74 13.74 0 0 1 -9.88 3.82 13.48 13.48 0 0 1 -9.8-3.82m9.8-1.93a6.62 6.62 0 0 0 4.91-2.1 8.14 8.14 0 0 0 2.05-5.94 8.11 8.11 0 0 0 -2-5.92 6.61 6.61 0 0 0 -4.9-2.08 6.45 6.45 0 0 0 -4.86 2.08 8.28 8.28 0 0 0 -2 5.94 8.28 8.28 0 0 0 2 5.94 6.42 6.42 0 0 0 4.83 2.08z" fill="#414042" transform="translate(-.01)"/></g><path d="m157.51 16.46h6.81v35.74h-6.81z" fill="#414042" transform="translate(-.01)"/><g clip-path="url(#a)"><path d="m180.55 46.5h3.24v5.7h-4.3a9.52 9.52 0 0 1 -6.33-1.88q-2.22-1.88-2.22-6.23v-13.09h-2.85v-5.56h2.85v-6.62h6.81v6.62h6v5.56h-6v13.09a2.38 2.38 0 0 0 .63 1.86 3.28 3.28 0 0 0 2.17.56" fill="#414042" transform="translate(-.01)"/></g><path d="m220.74 18.49h6.81v33.71h-6.81v-14.44h-14.49v14.44h-6.81v-33.71h6.81v14.05h14.49z" fill="#414042" transform="translate(-.01)"/><g clip-path="url(#a)"><path d="m234.6 48.7a14 14 0 0 1 -3.6-9.93 13.92 13.92 0 0 1 3.58-9.88 11.86 11.86 0 0 1 9.08-3.84 9.38 9.38 0 0 1 8.4 4.54v-4.15h6.76v26.76h-6.75v-4.49a9.48 9.48 0 0 1 -8.45 4.88 11.76 11.76 0 0 1 -9-3.89m15.34-4.11a7.75 7.75 0 0 0 2.13-5.77 7.75 7.75 0 0 0 -2.15-5.82 6.93 6.93 0 0 0 -9.81-.14l-.13.14a7.71 7.71 0 0 0 -2.1 5.75 7.83 7.83 0 0 0 2.12 5.8 6.86 6.86 0 0 0 9.7.22l.2-.2" fill="#414042" transform="translate(-.01)"/></g><path d="m262.6 16.46h6.81v35.74h-6.81z" fill="#414042" transform="translate(-.01)"/><path d="m273.19 52.2h6.81v-35.74h-6.81z" fill="#414042" transform="translate(-.01)"/><g clip-path="url(#a)"><path d="m32.26 58.1a2.29 2.29 0 0 0 .34-.62v-.67c-.2-.47-.82-.76-1.47-1a17 17 0 0 1 -4.14-2c-2.41-2-2-4.14.65-5.7.57-.33 1.26-1.09 1.22-1.6s-.93-1.11-1.55-1.25a12.29 12.29 0 0 1 -6.93-3.62c-1.38-1.64-2.44-3.38-1.65-5.57s2.81-2.68 4.94-2.9h.25c.52 0 1.27-.07 1.94-.14h5.88c.56-.21 1.22-.64 1.16-.89s-1-.48-1.59-.5a19.91 19.91 0 0 1 -6.6-1.08l-1.11-.56a12.5 12.5 0 0 1 -4.68-7.24c-1-4.75 1.66-7.38 6.51-6.5.78.14 2 .08 2.38-.38s-.07-1.57-.22-2.38a23.1 23.1 0 0 1 -.32-3.5 5.46 5.46 0 0 1 1.11-4 21 21 0 0 1 2.7-2.82c.35-.31.78-.69 1.26-1.08l.11-.1.21-.17.12-.06a7.46 7.46 0 0 1 3.16-.89h.15.44v-.88l-7.42.11h-29.11v2.59q4.54.44 6.08 1.3 2.54 1.57 2.54 5.87v49.41q0 4.44-2.84 6a14.17 14.17 0 0 1 -5.78 1.18v2.54h37v-3.86a26 26 0 0 0 -3.89-2.89c-1.45-1-2.15-2.41-.85-4.15m36.98-54.1q1.64-1 6.12-1.3v-2.59h-29l-7.36-.11v.85h.44.15a7.44 7.44 0 0 1 3.17.89h.09a23.3 23.3 0 0 1 3.45 2.8 9.16 9.16 0 0 1 2.3 3.67c.42 1.56-.26 3.13-.54 4.65-.18 1-.38 2-.57 3a16.24 16.24 0 0 0 3.1.06c2.35-.39 4.56.17 5.24 2.08a10.7 10.7 0 0 1 .44 5.24 10.83 10.83 0 0 1 -4.07 6.31c-.1.07-.49.36-1 .71a18.5 18.5 0 0 1 -7 1.26c-.62 0-1.53.27-1.59.5s.61.68 1.16.89h7.23l.87.14.33.06h.32.21c3.94.68 5.37 3.83 3.08 7.26a11.08 11.08 0 0 1 -7 4.48 9.83 9.83 0 0 0 -2.34 1.33 11.79 11.79 0 0 0 1.94 2c1.59 1 2.07 2.23 1.21 3.91a7 7 0 0 1 -4.62 3.53c-2.54.74-2.49.8-1.53 3.09a3.23 3.23 0 0 1 -.17 2.4 4.23 4.23 0 0 1 -1.85 1.83 8.31 8.31 0 0 0 -2.93 2.06v4h36.84v-2.55a14.13 14.13 0 0 1 -5.83-1.1q-3-1.6-3-6.08v-49.4q0-4.35 2.74-5.89" fill="#663663" transform="translate(-.01)"/></g></svg>