<svg xmlns="http://www.w3.org/2000/svg" width="192.831" height="83.314"><path d="M60.122 10.554c-5.419 8.065-10.519 15.612-14.537 24.581q-.593 1.325-1.172 2.654c-2.8 6.412-5.521 12.974-8.743 19.2-6.968-1.343-14.045-4.1-18.831-8.889a38.233 38.233 0 0 0 18.347 9.819 70.1 70.1 0 0 1-12.3 17.29 20.614 20.614 0 0 1-8.264 5.491c-6.311 1.9-10.9-2.584-14.618-7.077 2.545 3.072 3.923 6.158 7.8 8.07 7.673 3.789 16.227-.66 21.9-5.988a55.173 55.173 0 0 0 9.614-12.569 110.22 110.22 0 0 0 2.263-4.1c.165.022.32.043.448.063 52.976 1.881 50.37-24.9 50.37-24.9 0-13.146-11.367-20.4-22.449-24.427q-1.646-.6-3.344-1.115c2.98-4.15 6.773-8.183 11.946-8.183-2.632 0-4.557-.214-7.166.94a28.722 28.722 0 0 0-8.428 6.244c-17.1-4.185-36.92-2.2-51.43 8.437C5.935 20.195 1.399 26.137.309 32.986-.7 39.323 1.358 45.927 5.157 51.098a37.955 37.955 0 0 0 15.056 11.655c-4.811-3.1-9.428-6.651-12.88-11.215S1.665 41.282 2.116 35.577c.574-7.26 5.376-13.641 11.265-17.926 6.9-5.022 15.307-7.76 23.729-8.74a56.666 56.666 0 0 1 11.45-.267s9.669.66 11.562 1.91zm12.4 41.679c-8.491 4.629-19.008 6.146-28.565 5.734q-.869-.038-1.763-.1c7.753-15.007 12.707-31.505 21.99-45.629l.5-.763c21 6.947 20.907 22.445 20.907 22.446-.05 7.911-6.574 14.771-13.071 18.312z" fill="#06284a"/><path d="M115.052 13.529c0 2.7.051 3.035 1.7 3.215l.694.077a.5.5 0 0 1-.052.643 86.004 86.004 0 0 0-3.343-.077c-1.079 0-2.006.025-3.137.077a.5.5 0 0 1-.052-.643l.54-.077c1.492-.205 1.543-.515 1.543-3.215V4.037c0-2.187-.052-2.624-1.208-2.752l-.927-.1a.43.43 0 0 1 .051-.643 40.567 40.567 0 0 1 5.093-.2 9.294 9.294 0 0 1 4.938 1.028 4.443 4.443 0 0 1 2.058 3.857 4.361 4.361 0 0 1-2.572 4.09 8.678 8.678 0 0 1-3.55.771c-.18-.077-.18-.463-.026-.515 2.778-.513 3.782-2.082 3.782-4.32a3.793 3.793 0 0 0-4.141-4.115c-1.363 0-1.389.1-1.389.925zm23.135-2.109c-.18-.566-.283-.643-1.055-.643h-3.884c-.643 0-.8.077-.977.616l-.9 2.7a9.81 9.81 0 0 0-.567 2.134c0 .31.129.463.747.515l.848.077a.414.414 0 0 1-.051.643c-.669-.053-1.467-.053-2.675-.077-.849 0-1.775.052-2.469.077a.5.5 0 0 1-.051-.643l.848-.077a1.712 1.712 0 0 0 1.543-1.261c.463-1.184 1.183-2.854 2.263-5.736l2.624-6.942a3.686 3.686 0 0 0 .437-1.826 2.887 2.887 0 0 0 1.339-.978.362.362 0 0 1 .385.23c.335 1.133.746 2.316 1.132 3.447l3.524 10.34c.745 2.211 1.079 2.6 2.186 2.727l.694.077a.5.5 0 0 1 0 .643 58.17 58.17 0 0 0-3.112-.077c-1.235 0-2.212.052-2.958.077a.432.432 0 0 1-.051-.643l.745-.077c.54-.052.9-.205.9-.463a5.291 5.291 0 0 0-.334-1.363zm-5.092-2.289c-.207.59-.18.616.539.616h3.164c.745 0 .8-.1.565-.8l-1.388-4.192a17.18 17.18 0 0 0-.592-1.621h-.051a15.642 15.642 0 0 0-.618 1.519zM153.159 4.3c0-2.444-.077-2.882-1.132-3.009l-.823-.1a.429.429 0 0 1 .026-.643c1.44-.13 3.214-.2 5.735-.2a9.107 9.107 0 0 1 4.3.771 3.833 3.833 0 0 1 2.135 3.6 4.757 4.757 0 0 1-3.215 4.3c-.129.155 0 .413.128.617 2.057 3.317 3.421 5.376 5.17 6.842a3.088 3.088 0 0 0 1.775.721.215.215 0 0 1 .026.36 4 4 0 0 1-1.132.127c-2.187 0-3.5-.643-5.323-3.239-.67-.953-1.724-2.727-2.52-3.885a1.838 1.838 0 0 0-1.826-.823c-1.158 0-1.209.025-1.209.566v3.242c0 2.7.051 3.009 1.543 3.215l.54.077a.5.5 0 0 1-.052.643 62.768 62.768 0 0 0-3.06-.077 70.49 70.49 0 0 0-3.216.077.5.5 0 0 1-.051-.643l.643-.077c1.492-.18 1.543-.515 1.543-3.215zm2.109 3.678a2.014 2.014 0 0 0 .077.848c.076.077.463.13 1.775.13a4.3 4.3 0 0 0 2.65-.67 3.683 3.683 0 0 0 1.286-3.187 3.789 3.789 0 0 0-4.115-3.962c-1.6 0-1.673.1-1.673.823zm21.565-3.708c0-2.7-.051-3.112-1.543-3.242l-.643-.05c-.154-.1-.1-.567.051-.643 1.261.05 2.084.075 3.241.075 1 0 1.877-.025 2.983-.075.155.075.207.538.052.643l-.489.05c-1.492.155-1.543.54-1.543 3.242v2.957c0 .488.051.978.334.978a1.455 1.455 0 0 0 .721-.285c.36-.308 1.029-.976 1.312-1.234l2.778-2.752a28.8 28.8 0 0 0 2.005-2.134.759.759 0 0 0 .18-.413c0-.1-.1-.18-.437-.258l-.694-.153a.428.428 0 0 1 .052-.643c.9.05 1.928.075 2.829.075s1.775-.025 2.546-.075a.477.477 0 0 1 .052.643 6.355 6.355 0 0 0-2.393.724 25.877 25.877 0 0 0-3.6 2.985l-2.314 2.186c-.36.36-.592.591-.592.8 0 .18.154.386.489.8 2.443 2.8 4.423 5.119 6.43 7.227a3.205 3.205 0 0 0 2.057 1.056l.694.077a.45.45 0 0 1-.051.643c-.668-.053-1.671-.077-2.881-.077-1.055 0-1.954.025-3.137.077-.18-.053-.258-.488-.1-.643l.592-.1c.36-.052.617-.13.617-.258 0-.155-.18-.36-.36-.593-.489-.616-1.157-1.311-2.136-2.417l-2.058-2.314c-1.466-1.646-1.877-2.161-2.494-2.161-.387 0-.438.335-.438 1.235v3.317c0 2.7.051 3.06 1.492 3.215l.694.077c.154.1.1.566-.052.643a70.134 70.134 0 0 0-3.138-.077c-1.055 0-1.929.025-2.984.077a.5.5 0 0 1-.051-.643l.514-.077c1.363-.205 1.414-.515 1.414-3.215zm-61.977 26.433c0 .693.077.693.849.693h1.749a9.739 9.739 0 0 0 2.187-.153c.283-.1.488-.232.643-.9l.232-1.028a.538.538 0 0 1 .668 0c0 .616-.1 1.646-.1 2.6 0 .925.1 1.9.1 2.494-.1.155-.488.155-.668 0l-.258-1a1.232 1.232 0 0 0-.823-.976 8.586 8.586 0 0 0-1.98-.13h-1.749c-.772 0-.849.025-.849.7v3.575c0 2.7.052 3.087 1.569 3.215l.876.077c.154.1.1.565-.052.643a94.144 94.144 0 0 0-3.42-.077c-1.132 0-2.006.025-3.216.077a.5.5 0 0 1-.051-.643l.643-.077c1.492-.18 1.544-.515 1.544-3.215v-9.27c0-2.7-.052-3.062-1.544-3.242l-.411-.05c-.154-.1-.1-.567.052-.643 1.08.05 1.955.076 2.984.076h4.732c1.646 0 3.138 0 3.472-.076 0 1.181.026 2.417.077 3.395a.464.464 0 0 1-.618.076c-.2-1.156-.514-2.109-1.8-2.442a10.946 10.946 0 0 0-2.5-.155h-1.569c-.772 0-.772.052-.772 1.028zm22.576 3.755c-.18-.565-.283-.643-1.055-.643h-3.884c-.643 0-.8.077-.977.616l-.9 2.7a9.8 9.8 0 0 0-.566 2.134c0 .31.129.463.746.515l.848.077a.413.413 0 0 1-.051.643c-.668-.052-1.466-.052-2.675-.077-.849 0-1.775.053-2.469.077a.5.5 0 0 1-.051-.643l.848-.077a1.712 1.712 0 0 0 1.543-1.261c.463-1.183 1.183-2.854 2.263-5.736l2.624-6.942a3.69 3.69 0 0 0 .437-1.826 2.889 2.889 0 0 0 1.334-.981.364.364 0 0 1 .386.231c.334 1.133.745 2.316 1.131 3.447l3.524 10.339c.745 2.212 1.079 2.6 2.186 2.727l.694.077a.5.5 0 0 1 0 .643 59.209 59.209 0 0 0-3.112-.077c-1.234 0-2.212.053-2.958.077a.431.431 0 0 1-.052-.643l.746-.077c.54-.052.9-.205.9-.463a5.285 5.285 0 0 0-.334-1.363zm-5.092-2.289c-.207.59-.18.616.539.616h3.168c.745 0 .8-.1.566-.8l-1.389-4.193c-.207-.617-.438-1.311-.592-1.621h-.051a15.638 15.638 0 0 0-.618 1.519zm20.038-4.835c0-2.444-.077-2.882-1.132-3.009l-.823-.1a.429.429 0 0 1 .026-.643c1.44-.13 3.214-.205 5.735-.205a9.107 9.107 0 0 1 4.3.771 3.833 3.833 0 0 1 2.135 3.6 4.755 4.755 0 0 1-3.215 4.3c-.129.155 0 .413.128.618 2.058 3.317 3.421 5.376 5.17 6.842a3.091 3.091 0 0 0 1.775.721.215.215 0 0 1 .026.36 3.976 3.976 0 0 1-1.132.128c-2.187 0-3.5-.643-5.323-3.24-.67-.952-1.724-2.727-2.521-3.884a1.837 1.837 0 0 0-1.826-.823c-1.158 0-1.209.025-1.209.566v3.242c0 2.7.051 3.009 1.543 3.215l.54.077a.5.5 0 0 1-.052.643 64.056 64.056 0 0 0-3.06-.077 70.49 70.49 0 0 0-3.216.077.5.5 0 0 1-.051-.643l.643-.077c1.492-.18 1.543-.515 1.543-3.215zm2.109 3.677a2.016 2.016 0 0 0 .077.849c.076.077.463.13 1.775.13a4.3 4.3 0 0 0 2.65-.67 3.684 3.684 0 0 0 1.286-3.188 3.789 3.789 0 0 0-4.116-3.962c-1.594 0-1.672.1-1.672.823zm25.794 2.547c.592 1.208 1.157 2.391 1.775 3.522h.051c.694-1.208 1.337-2.545 1.98-3.857l2.418-4.911c1.157-2.341 1.9-3.757 1.955-4.938.874.076 1.414.076 1.928.076.643 0 1.491-.025 2.289-.076a.542.542 0 0 1 .025.643l-.539.05c-1.621.155-1.826.643-1.8 2.444.051 2.727.077 7.485.283 11.188.077 1.286.052 1.981 1.26 2.084l.823.077a.474.474 0 0 1-.051.643 63.017 63.017 0 0 0-3.035-.077c-.9 0-2.058.025-3.112.077a.476.476 0 0 1-.052-.643l.746-.077c1.26-.128 1.26-.54 1.26-2.187l-.077-10.725h-.052c-.179.283-1.157 2.339-1.671 3.343l-2.289 4.5c-1.157 2.262-2.315 4.681-2.778 5.864a.3.3 0 0 1-.258.1.31.31 0 0 1-.231-.1c-.437-1.363-1.671-3.884-2.263-5.145l-2.315-4.963c-.54-1.184-1.08-2.519-1.646-3.7h-.052c-.1 1.594-.18 3.085-.258 4.578-.076 1.569-.179 3.858-.179 6.044 0 1.9.154 2.315 1.157 2.392l.977.077c.18.153.155.565-.025.643a49.64 49.64 0 0 0-2.856-.077c-.823 0-1.749.025-2.623.077a.508.508 0 0 1-.051-.643l.565-.077c1.081-.155 1.441-.308 1.6-2.109.154-1.7.283-3.112.438-5.658.127-2.134.231-4.32.282-5.736.052-1.619-.155-2.006-1.724-2.211l-.411-.05a.482.482 0 0 1 .1-.643c.772.05 1.39.076 2.032.076.592 0 1.286 0 2.134-.076-.1 1 .54 2.6 1.338 4.243zm-65.453 20.224c-.907 0-.945.038-.945.6v2.665c0 1.983.095 2.248 1.153 2.362l.548.057c.113.076.075.415-.038.473a61.001 61.001 0 0 0-2.4-.057c-.812 0-1.455.038-2.192.057a.368.368 0 0 1-.038-.473l.321-.057c1.059-.189 1.1-.379 1.1-2.362v-6.8c0-1.985-.133-2.306-1.115-2.382l-.492-.037c-.113-.077-.075-.417.038-.472.926.018 1.569.056 2.381.056.737 0 1.379-.019 2.192-.056.114.056.151.4.038.472l-.359.037c-1.1.114-1.134.4-1.134 2.382v2.172c0 .586.038.6.945.6h5.4c.907 0 .945-.018.945-.6v-2.172c0-1.985-.038-2.268-1.153-2.382l-.359-.037c-.113-.077-.075-.417.038-.472.869.037 1.512.056 2.286.056.737 0 1.379-.019 2.23-.056.113.056.151.4.038.472l-.4.037c-1.1.114-1.134.4-1.134 2.382v6.8c0 1.983.037 2.23 1.134 2.362l.454.057c.113.076.075.415-.038.473a51.566 51.566 0 0 0-2.287-.057c-.775 0-1.455.019-2.286.057a.369.369 0 0 1-.029-.471l.359-.057c1.153-.189 1.153-.379 1.153-2.362v-2.665c0-.566-.038-.6-.945-.6zm15.536-.001a6.532 6.532 0 0 1 6.727-6.67 6.219 6.219 0 0 1 6.557 6.481 6.452 6.452 0 0 1-6.557 6.6 6.364 6.364 0 0 1-6.727-6.411zm11.395.4c0-3.117-1.379-6.481-4.988-6.481-1.966 0-4.517 1.341-4.517 5.479 0 2.8 1.361 6.426 5.083 6.426 2.267-.003 4.422-1.705 4.422-5.427zm14.318 2.87c0 1.983.037 2.268 1.134 2.362l.6.057c.113.076.075.415-.038.473-1.077-.038-1.72-.057-2.476-.057s-1.417.019-2.626.057a.329.329 0 0 1 0-.473l.68-.057c1.077-.093 1.172-.379 1.172-2.362v-8.447c0-.586 0-.6-.567-.6h-1.04a3.869 3.869 0 0 0-2.324.473 3.443 3.443 0 0 0-.85 1.3.367.367 0 0 1-.492-.133 19.878 19.878 0 0 0 .718-2.816.469.469 0 0 1 .359 0c.113.6.737.585 1.607.585h7.653c1.02 0 1.19-.037 1.473-.528.095-.038.3-.02.341.055a11.4 11.4 0 0 0-.284 2.873.356.356 0 0 1-.491.038c-.057-.472-.189-1.172-.472-1.38a3.764 3.764 0 0 0-2.192-.473h-1.342c-.567 0-.547.018-.547.643zm12.729-6.802c0-1.966-.037-2.25-1.152-2.382l-.3-.037c-.114-.077-.076-.417.037-.472.812.037 1.455.056 2.23.056h3.553c1.209 0 2.324 0 2.552-.056a21.31 21.31 0 0 1 .3 2.513.371.371 0 0 1-.473.037c-.283-.888-.454-1.55-1.436-1.794a8.915 8.915 0 0 0-1.833-.114h-1.36c-.567 0-.567.038-.567.756v3.781c0 .528.057.528.624.528h1.1a7.053 7.053 0 0 0 1.606-.112c.227-.075.359-.189.454-.662l.151-.776a.376.376 0 0 1 .492.02c0 .453-.076 1.189-.076 1.908 0 .68.076 1.4.076 1.814a.373.373 0 0 1-.492.018l-.17-.737a.806.806 0 0 0-.585-.717 6.344 6.344 0 0 0-1.456-.1h-1.1c-.567 0-.624.02-.624.511v2.665c0 1 .057 1.643.359 1.965.227.227.623.434 2.286.434a5.534 5.534 0 0 0 2.419-.283 4.763 4.763 0 0 0 1.341-1.833.346.346 0 0 1 .472.133 16.53 16.53 0 0 1-.85 2.627c-1.7-.038-3.383-.057-5.065-.057h-1.7c-.812 0-1.454.019-2.569.057a.367.367 0 0 1-.038-.473l.623-.057c1.077-.093 1.172-.379 1.172-2.362zm15.846 0c0-1.985-.038-2.286-1.229-2.382l-.472-.037c-.113-.077-.075-.417.038-.472 1.058.037 1.7.056 2.456.056.737 0 1.379-.019 2.324-.056.113.056.151.4.038.472l-.454.037c-1.115.1-1.153.4-1.153 2.382v6.575c0 1.191.057 1.682.4 2.041.208.208.567.434 2.059.434 1.607 0 2-.076 2.306-.245a4.042 4.042 0 0 0 1.247-1.871c.114-.1.473-.02.473.112a15.157 15.157 0 0 1-.794 2.647c-.963-.038-2.759-.057-4.705-.057h-1.738c-.794 0-1.4.019-2.456.057a.368.368 0 0 1-.038-.473l.567-.057c1.1-.114 1.134-.379 1.134-2.362zm-67.121 27.003c.92 0 1.4-.025 1.73-.05a.225.225 0 0 1 .025.295l-.54.086c-.675.111-1.031.724-1.411 1.338-.406.65-.908 1.337-1.424 2.049.209.33.282.429.405.613a1.961 1.961 0 0 0 1.779 1.1 1.578 1.578 0 0 0 1.1-.442.165.165 0 0 1 .135.221 2.353 2.353 0 0 1-1.951.823 2.176 2.176 0 0 1-1.313-.356 7.523 7.523 0 0 1-.749-1.129 3.72 3.72 0 0 1-2.675 1.485 2.214 2.214 0 0 1-2.405-2.21c0-1.276.9-2.024 1.988-2.675a1.877 1.877 0 0 1-.945-1.485 1.694 1.694 0 0 1 1.718-1.656 1.466 1.466 0 0 1 1.584 1.46c0 .811-.639 1.129-1.24 1.473a8.393 8.393 0 0 1 2.344 2.405 17.684 17.684 0 0 0 1.277-2.148 2.242 2.242 0 0 0 .27-.674c0-.086-.123-.16-.319-.185l-.417-.049a.2.2 0 0 1 .024-.294zm-6.369 3.46a1.759 1.759 0 0 0 1.829 1.853 2.853 2.853 0 0 0 2.11-1.129 8.773 8.773 0 0 0-2.552-2.773 2.444 2.444 0 0 0-1.388 2.049zm.908-4.086c0 .515.344.957 1.006 1.337a1.5 1.5 0 0 0 .737-1.276c0-.54-.27-1.068-.859-1.068a.949.949 0 0 0-.884 1.007zm16.671.233c0-1.289-.025-1.485-.8-1.547l-.306-.024c-.073-.05-.049-.271.025-.306.687.024 1.1.036 1.6.036s.9-.012 1.51-.036c.073.036.1.256.025.306l-.295.024c-.724.062-.748.258-.748 1.547v4.269c0 .773.037 1.092.258 1.326.135.135.368.282 1.337.282 1.043 0 1.3-.049 1.5-.159a2.627 2.627 0 0 0 .81-1.215c.073-.062.307-.013.307.073a9.806 9.806 0 0 1-.516 1.718 92.785 92.785 0 0 0-3.056-.037h-1.129c-.515 0-.908.012-1.6.037a.238.238 0 0 1-.025-.306l.368-.037c.712-.073.737-.246.737-1.534zm9.659 0c0-1.277-.024-1.461-.748-1.547l-.2-.024c-.074-.05-.049-.271.024-.306.528.024.945.036 1.448.036h2.307c.785 0 1.51 0 1.656-.036a13.835 13.835 0 0 1 .2 1.632.241.241 0 0 1-.307.024c-.184-.576-.295-1.006-.933-1.165a5.808 5.808 0 0 0-1.191-.074h-.883c-.368 0-.368.025-.368.491v2.455c0 .342.037.342.405.342h.711a4.588 4.588 0 0 0 1.043-.073c.147-.049.233-.123.295-.43l.1-.5a.242.242 0 0 1 .319.013c0 .294-.049.772-.049 1.239 0 .441.049.908.049 1.178a.242.242 0 0 1-.319.012l-.111-.479a.523.523 0 0 0-.38-.466 4.123 4.123 0 0 0-.946-.062h-.711c-.368 0-.405.013-.405.332v1.731c0 .65.037 1.067.234 1.275.147.147.4.282 1.485.282a3.592 3.592 0 0 0 1.57-.184 3.091 3.091 0 0 0 .872-1.19.224.224 0 0 1 .306.086 10.653 10.653 0 0 1-.552 1.705c-1.1-.025-2.2-.037-3.289-.037h-1.1c-.528 0-.945.012-1.669.037a.237.237 0 0 1-.025-.306l.4-.037c.7-.061.761-.246.761-1.534zm9.465.024c0-1.3-.024-1.509-.748-1.571l-.307-.024c-.074-.05-.049-.271.025-.306.613.024 1.03.036 1.546.036.491 0 .908-.012 1.521-.036.074.036.1.256.025.306l-.308.024c-.723.062-.748.27-.748 1.571v4.369c0 1.3.025 1.473.748 1.558l.308.037c.073.049.049.27-.025.306a34.908 34.908 0 0 0-1.521-.037c-.516 0-.933.012-1.546.037a.237.237 0 0 1-.025-.306l.307-.037c.724-.086.748-.258.748-1.558zm8.198 6.431a3.835 3.835 0 0 1-1.915-.454 5.683 5.683 0 0 1-.331-1.718c.061-.086.245-.111.295-.037a2.232 2.232 0 0 0 2.11 1.829 1.394 1.394 0 0 0 1.534-1.412 1.844 1.844 0 0 0-1.006-1.718l-1.166-.76a2.619 2.619 0 0 1-1.325-2.111 2.208 2.208 0 0 1 2.5-2.11 4.73 4.73 0 0 1 1.141.16 1.659 1.659 0 0 0 .43.073 5.385 5.385 0 0 1 .221 1.5c-.049.073-.246.11-.307.036a1.607 1.607 0 0 0-1.668-1.386 1.285 1.285 0 0 0-1.461 1.362 1.929 1.929 0 0 0 1.043 1.509l.982.613a2.765 2.765 0 0 1 1.534 2.356 2.317 2.317 0 0 1-2.611 2.268zm12.974-5.216a8.849 8.849 0 0 0-.233-2.539.755.755 0 0 0-.613-.258l-.307-.025a.221.221 0 0 1 .025-.294c.466.024.92.036 1.4.036.515 0 .847-.012 1.289-.036a.211.211 0 0 1 .025.294l-.295.025a.715.715 0 0 0-.613.295 10.941 10.941 0 0 0-.172 2.5v1.387a4.272 4.272 0 0 1-.859 2.932 3.232 3.232 0 0 1-2.344.9 3.49 3.49 0 0 1-2.3-.675 3.509 3.509 0 0 1-.956-2.9v-2.9c0-1.276-.025-1.484-.737-1.546l-.306-.025c-.074-.049-.05-.258.024-.294.614.024 1.031.036 1.522.036s.908-.012 1.509-.036c.073.036.1.244.025.294l-.295.025c-.711.061-.736.27-.736 1.546v2.651c0 1.975.614 3.276 2.491 3.276 1.779 0 2.454-1.4 2.454-3.265zm6.175-1.227c0-1.166-.037-1.375-.54-1.436l-.393-.049a.2.2 0 0 1 .013-.307c.687-.062 1.534-.1 2.736-.1a4.344 4.344 0 0 1 2.049.368 1.827 1.827 0 0 1 1.018 1.717 2.269 2.269 0 0 1-1.534 2.049c-.061.074 0 .2.061.295a13.251 13.251 0 0 0 2.467 3.264 1.471 1.471 0 0 0 .847.344.1.1 0 0 1 .013.172 1.919 1.919 0 0 1-.54.061c-1.043 0-1.669-.306-2.54-1.546-.32-.454-.822-1.3-1.2-1.853a.876.876 0 0 0-.872-.393c-.553 0-.577.012-.577.27v1.547c0 1.288.024 1.436.736 1.534l.258.037a.24.24 0 0 1-.024.306 30.361 30.361 0 0 0-2.995 0 .236.236 0 0 1-.024-.306l.306-.037c.712-.086.737-.246.737-1.534zm1.006 1.755a.965.965 0 0 0 .037.4c.037.037.221.062.847.062a2.052 2.052 0 0 0 1.264-.32 1.758 1.758 0 0 0 .613-1.521 1.807 1.807 0 0 0-1.963-1.89c-.761 0-.8.049-.8.392zm9.781-1.767c0-1.277-.024-1.461-.748-1.547l-.2-.024c-.074-.05-.05-.271.024-.306.528.024.945.036 1.448.036h2.307c.785 0 1.509 0 1.656-.036a13.746 13.746 0 0 1 .2 1.632.24.24 0 0 1-.306.024c-.185-.576-.295-1.006-.933-1.165a5.808 5.808 0 0 0-1.19-.074h-.884c-.368 0-.368.025-.368.491v2.455c0 .342.037.342.405.342h.711a4.588 4.588 0 0 0 1.043-.073c.147-.049.234-.123.295-.43l.1-.5a.242.242 0 0 1 .319.013c0 .294-.049.772-.049 1.239 0 .441.049.908.049 1.178a.242.242 0 0 1-.319.012l-.111-.479a.523.523 0 0 0-.38-.466 4.114 4.114 0 0 0-.945-.062h-.711c-.368 0-.405.013-.405.332v1.731c0 .65.037 1.067.234 1.275.147.147.4.282 1.484.282a3.6 3.6 0 0 0 1.571-.184 3.09 3.09 0 0 0 .872-1.19.224.224 0 0 1 .306.086 10.709 10.709 0 0 1-.552 1.705c-1.1-.025-2.2-.037-3.289-.037h-1.1c-.528 0-.945.012-1.669.037a.238.238 0 0 1-.024-.306l.4-.037c.7-.061.761-.246.761-1.534z" fill="#8b8f9f"/><path fill="none" stroke="#8b8f9f" stroke-miterlimit="10" d="M109.326 67.595h83.195"/></svg>