<svg viewBox="-15198 3320.042 104.926 142.294" xmlns="http://www.w3.org/2000/svg"><g fill="#873a34"><path d="m90.988 117.089c1.112-.708 2.022-1.315 2.983-1.82a18.387 18.387 0 0 1 12.029-1.569 32.593 32.593 0 0 1 4.247 1.062c1.315.4 1.517.708 1.163 2.022-.354 1.416-.506 1.517-1.972 1.618a24.168 24.168 0 0 0 -8.039 1.567 12.553 12.553 0 0 0 -7.078 7.534 26.824 26.824 0 0 0 -1.416 10.365c.2 7.584.657 15.168 1.315 22.752q.455 5.612 1.062 11.224a228.7 228.7 0 0 0 3.391 22.656c.1.556.3 1.112.4 1.668.253 1.213-.152 1.719-1.365 1.921a9.744 9.744 0 0 1 -1.213.051h-11.777c-1.517-.051-2.073-.708-1.719-2.174a90.021 90.021 0 0 0 1.416-9c.3-2.629.607-5.208.86-7.837.556-6.269.961-12.59 1.163-18.859a305.118 305.118 0 0 0 -.354-32.611 106.379 106.379 0 0 0 -1.315-11.326 8.232 8.232 0 0 1 -.152-1.567c0-.809.253-1.163 1.011-1.264 1.365-.2 2.73-.4 4.1-.506.86-.051 1.112.2 1.163 1.163-.004.857.046 1.768.097 2.93z" transform="translate(-15238.984 3264.198)"/><path d="m79.419 19.7a8.57 8.57 0 0 0 0 1.972c.253 6.421.556 12.842.86 19.264.152 3.286.354 6.522.506 9.809 0 .4.051.809.051 1.213 0 1.062-.152 1.264-1.163 1.517-1.112.253-2.225.455-3.337.657-1.163.2-1.517-.051-1.567-1.213-.1-1.315-.152-2.579-.2-3.893-.455-10.567-.86-21.185-1.315-31.752-.2-4.348-.354-8.646-.455-12.994-.053-2.275.351-2.78 2.525-3.539a5.61 5.61 0 0 1 2.882-.2 3.4 3.4 0 0 1 2.68 2.376l2.427 6.826a43.143 43.143 0 0 0 1.921 4.8c.607-1.567 1.163-2.933 1.719-4.3 1.062-2.629 2.124-5.258 3.135-7.887a3.591 3.591 0 0 1 3.337-2.373 8.216 8.216 0 0 1 3.64.708 2.284 2.284 0 0 1 1.365 2.578l-.455 5.309c-.455 6.269-.91 12.488-1.416 18.758-.559 6.472-.959 12.994-1.617 19.464-.152 1.466-.2 2.882-.354 4.348-.1 1.112-.354 1.315-1.466 1.315a35.089 35.089 0 0 0 -3.994 0c-.809.051-1.062-.2-1.011-1.112q.076-2.048.3-4.1c.657-7.837 1.264-15.623 1.921-23.46.1-1.315.2-2.68.253-3.994 0-.253.1-.607-.3-.708-.3-.051-.4.253-.506.455-.758 1.517-1.466 3.034-2.225 4.6-.455.961-.91 1.871-1.416 2.831-.809 1.517-1.517 1.567-2.376.1-.809-1.416-1.567-2.831-2.326-4.247-.455-.86-.86-1.719-1.315-2.579-.151-.295-.252-.549-.708-.549z" transform="translate(-15233.988 3320.076)"/><path d="m51.645 33.04c.3 5.562.607 11.123.86 16.735a37.215 37.215 0 0 1 -.051 5.309 5.1 5.1 0 0 1 -3.539 4.753 25.838 25.838 0 0 1 -5.208 1.563 3.694 3.694 0 0 1 -4.348-2.275 17.426 17.426 0 0 1 -1.112-5.056c-.4-3.084-.758-6.168-1.112-9.253-.4-3.539-.758-7.078-1.163-10.618-.455-4.4-.91-8.747-1.365-13.146a19.09 19.09 0 0 1 -.1-4.5 2.12 2.12 0 0 1 .4-1.112 6.6 6.6 0 0 1 3.084-2.275c1.163-.4 1.77-.1 2.124 1.062a14.663 14.663 0 0 1 .455 2.983c.506 5.461 1.011 10.972 1.517 16.432.506 5.359.961 10.719 1.719 16.028a7.849 7.849 0 0 0 .2 1.062 1.122 1.122 0 0 0 1.618.91 1.972 1.972 0 0 0 1.676-2.17c0-3.539-.2-7.129-.455-10.668-.3-3.741-.506-7.483-.809-11.275-.354-5.157-.758-10.314-1.112-15.471a9.742 9.742 0 0 1 -.051-1.213 2.659 2.659 0 0 1 .758-2.427 5.244 5.244 0 0 1 3.233-1.518 1.364 1.364 0 0 1 1.466 1.416c.1 1.112.2 2.275.253 3.388.4 7.129.758 14.258 1.062 21.336z" transform="translate(-15215.011 3316.648)"/><path d="m57.726 148.293a10.621 10.621 0 0 1 -1.668 6.32 7.248 7.248 0 0 1 -6.978 3.287 8.135 8.135 0 0 1 -6.623-4.652 19.666 19.666 0 0 1 -1.466-5.814 96.757 96.757 0 0 1 -1.011-11.477 8.157 8.157 0 0 1 0-1.112c0-.506-.253-.657-.708-.556-.86.1-1.668.253-2.528.354-1.062.152-2.174.3-3.236.4a1.329 1.329 0 0 1 -1.517-.758c-.354-.657-.758-1.213-1.112-1.871-.607-1.112-.4-1.567.86-1.921.607-.2 1.264-.354 1.871-.506 1.719-.455 3.438-.86 5.157-1.315.91-.253.961-.3.91-1.213-.051-1.213-.152-2.427-.152-3.64 0-1.517.2-1.82 1.668-2.225 1.213-.354 2.427-.657 3.64-.961.86-.2 1.213.051 1.213.961.051 1.466 0 2.933.051 4.348 0 1.011.051 1.062 1.011.86 2.326-.455 4.652-.961 7.028-1.416a6.194 6.194 0 0 1 .961-.1 1.112 1.112 0 0 1 1.264 1.011 29.524 29.524 0 0 1 .4 4.7c0 .556-.354.657-.758.758-1.921.354-3.893.708-5.865 1.062-1.011.2-2.073.354-3.135.506-.506.051-.758.253-.758.86a111.963 111.963 0 0 0 1.011 13.651 11.315 11.315 0 0 0 .506 1.871c.4 1.163 1.163 1.77 2.073 1.719a2.462 2.462 0 0 0 2.124-2.022 10.991 10.991 0 0 0 .1-1.82v-.86c-.051-1.77.2-2.124 2.022-2.275.708-.051 1.365-.1 2.073-.1.961 0 1.213.2 1.315 1.213.156.963.206 1.873.257 2.733z" transform="translate(-15213.103 3260.449)"/><path d="m141.3 59.672a3.161 3.161 0 0 0 -.2 1.517l-.3 7.281a6.2 6.2 0 0 1 -.1.961c-.152 1.315-.354 1.466-1.618 1.163-.961-.253-1.921-.556-2.932-.809-.86-.253-.91-.354-.86-1.315l.455-4.7c.3-2.882.556-5.814.86-8.7.506-5.005 1.011-10.062 1.567-15.067.152-1.416.354-1.618 1.77-1.871a29.435 29.435 0 0 0 3.034-.708c1.112-.354 1.416-.1 1.264 1.062-.3 2.427-.607 4.8-.91 7.23a3.337 3.337 0 0 0 -.051.708c.4.1.455-.253.607-.455 2.983-4.4 6.017-8.8 9-13.2.152-.2.253-.4.4-.607a1.648 1.648 0 0 1 2.629-.354 8.714 8.714 0 0 1 1.365 1.365 1.773 1.773 0 0 1 .152 2.528c-.961 1.416-2.022 2.831-3.034 4.247-2.983 4.1-5.966 8.14-8.8 12.337a2.847 2.847 0 0 0 -.4 2.68c1.264 4.247 2.477 8.545 3.691 12.792 0 .1.051.152.051.253.354 1.315.3 1.365-.91 1.972-.91.455-1.77.961-2.629 1.466-.708.4-1.062.3-1.365-.556-.354-1.112-.607-2.275-.86-3.388-.556-2.326-1.062-4.652-1.567-6.977-.002-.4-.002-.703-.309-.855z" transform="translate(-15264.879 3304.577)"/><path d="m190.6 81.921a97.983 97.983 0 0 1 -.86 10.769c-.051.4 0 1.011-.455 1.163-.556.2-.758-.455-1.062-.809-.4-.455-.708-1.011-1.112-1.416a3.039 3.039 0 0 1 -.809-2.68 58.069 58.069 0 0 0 .3-10.264 17.327 17.327 0 0 0 -.556-3.236 2.261 2.261 0 0 0 -.657-1.112.773.773 0 0 0 -.91-.2c-.354.1-.3.455-.354.708-.152 2.073-.3 4.1-.4 6.168-.1 1.669-.2 3.286-.3 4.955a4.984 4.984 0 0 1 -.1.86.479.479 0 0 1 -.758.354 16.112 16.112 0 0 0 -3.286-1.517c-.506-.152-.455-.607-.4-1.011.1-1.264.152-2.477.253-3.741.253-4.247.455-8.494.708-12.691.051-.556.051-1.112.152-1.669.152-1.163.506-1.466 1.77-1.567a6.335 6.335 0 0 1 5.258 2.225 11.89 11.89 0 0 1 2.73 5.461 34.948 34.948 0 0 1 .848 9.25z" transform="translate(-15286.418 3287.94)"/><path d="m170.957 78.4c-.1 2.579-.152 5.157-.253 7.736-.051 1.163-.1 1.163-1.315 1.213-.86 0-1.669.051-2.528.1-.961.051-1.062-.051-1.062-1.011v-5.818c.051-3.286.1-6.522.152-9.809a6.122 6.122 0 0 1 .051-.961c.1-.758.253-.91 1.011-.86 1.011.1 2.022.2 2.983.354.86.1 1.062.354 1.062 1.315v7.741z" transform="translate(-15279.971 3285.954)"/></g><path d="m176.992 53.544a3.806 3.806 0 0 0 -3.084 1.112 7.816 7.816 0 0 0 -1.213 1.365c-.253.354-.3.961-.86.91-.607-.1-.607-.708-.657-1.163a8.7 8.7 0 0 1 2.629-8.039 4.15 4.15 0 0 1 5.359-.4 3.521 3.521 0 0 1 1.163 4.6c-.557 1.21-1.467 1.665-3.337 1.615z" fill="#ffa400" transform="translate(-15282.567 3297.054)"/><path d="m201.442 56.083c.2-.1.4-.1.506.1.152.354.3.758.506 1.163.455-.4.455-.961.708-1.365.152-.253.354-.506.657-.4.253.1.3.354.3.607a20.391 20.391 0 0 0 .2 3.034.359.359 0 0 1 -.3.455c-.253.051-.354-.152-.4-.354l-.3-1.82c-.253.051-.2.253-.3.4-.354.708-.354.708-1.062.253-.354.253-.051 1.163-.556 1.062-.607-.1-.152-.809-.152-1.213a6.065 6.065 0 0 1 .2-1.921z" fill="#873a34" transform="translate(-15297.411 3292.593)"/><path d="m198.134 55.883a1.13 1.13 0 0 0 -.708 0c-.91.2-.961.253-.961 1.213 0 .506.1 1.062.152 1.567.051.3.051.607-.3.657-.4.051-.4-.3-.354-.607 0-.506.051-.961.051-1.466-.051-.86-.051-.86-.91-.708a.177.177 0 0 0 -.1.051c-.253.051-.506.152-.607-.152-.051-.253.152-.354.354-.4.961-.3 1.921-.607 2.882-.86.607-.152.455.4.506.708z" fill="#873a34" transform="translate(-15294.103 3292.793)"/><path d="m20.426 109.146c-.455-.506-.961-.961-1.466-1.466a43.558 43.558 0 0 1 -7.432-11.427 25.515 25.515 0 0 1 -1.315-3.236 1.262 1.262 0 0 1 .506-1.567 7.082 7.082 0 0 1 .809-.506 45.99 45.99 0 0 0 4.7-2.983 7.867 7.867 0 0 0 2.68-4.348 21.761 21.761 0 0 0 .253-6.269c-.3-3.64-.809-7.23-1.365-10.82-.455-2.781-.758-5.612-1.416-8.342a11.81 11.81 0 0 0 -1.921-4.4c-1.921-2.73-6.371-2.882-8.191-1.567a7.888 7.888 0 0 0 -2.022 2.073 19.3 19.3 0 0 0 -2.426 5.412 48.7 48.7 0 0 0 -1.82 12.233c0 8.241.758 14.561 2.427 20.072a49.167 49.167 0 0 0 5.764 12.488 50.823 50.823 0 0 0 3.994 5.359 3.31 3.31 0 0 0 2.275 1.466 35.888 35.888 0 0 0 5.208-.2c1.315-.152 1.618-.961.758-1.972zm-12.741-26.292a56.211 56.211 0 0 1 -1.011-11.426 43.992 43.992 0 0 1 1.011-10.112 1.3 1.3 0 0 1 .91-1.163 1.439 1.439 0 0 1 1.618.556 3.576 3.576 0 0 1 .607.91 12.73 12.73 0 0 1 1.163 3.286 65.289 65.289 0 0 1 1.466 11.73c.152 3.337-1.466 5.511-4.3 6.927-1.009.506-1.211.405-1.464-.708z" fill="#873a34" transform="translate(-15198 3294.641)"/><path d="m133.22 151.739c-.708-.354-1.466-.708-2.174-1.062-1.82-.86-1.972-.809-2.68 1.112a7.89 7.89 0 0 1 -3.236 4.1 5.987 5.987 0 0 1 -6.522.1c-1.972-1.466-2.68-3.539-2.983-5.865a.85.85 0 0 1 .809-1.011c.253-.051.455-.051.708-.1 2.275-.2 4.5-.4 6.775-.607 2.225-.2 4.449-.354 6.623-.657a1.772 1.772 0 0 0 1.719-1.719 4.627 4.627 0 0 0 .051-.86 19.286 19.286 0 0 0 -1.062-6.32 9.705 9.705 0 0 0 -5.814-6.27 13.612 13.612 0 0 0 -6.826-.556 10.451 10.451 0 0 0 -7.887 5.966 18.827 18.827 0 0 0 -2.124 9.354 19.982 19.982 0 0 0 2.124 9.354 11.663 11.663 0 0 0 17.089 4.753 16.908 16.908 0 0 0 5.208-5.814 12.23 12.23 0 0 0 .91-1.82c.455-1.067.253-1.573-.708-2.078zm-17.949-8.439c.3-3.135 2.124-5.309 5.41-5.663a5.4 5.4 0 0 1 5.814 4.4c.253 1.163.051 1.416-1.163 1.567-2.579.354-5.107.556-7.685.708h-1.466c-.657-.056-.96-.36-.91-1.012z" fill="#873a34" transform="translate(-15251.689 3254.88)"/><path d="m136.6 9.728a19.1 19.1 0 0 0 -9.96-4.348 1.245 1.245 0 0 0 -.607.051 1.756 1.756 0 0 0 -1.513 1.769c-.1 1.466-.3 2.983-.4 4.449l-2.427 24.876c-.556 5.865-1.163 11.73-1.719 17.646-.1 1.062 0 1.213 1.011 1.365.86.152 1.77.2 2.629.354 1.82.3 1.871.3 2.022-1.517.4-4.3.809-8.6 1.213-12.943.506-5.612.91-11.224 1.517-16.786.1-.86.1-.86.961-.86a14.547 14.547 0 0 0 3.944-.506 7.147 7.147 0 0 0 5.208-4.449 8.9 8.9 0 0 0 .556-3.59c-.004-2.73-.459-3.792-2.435-5.511zm-2.174 6.118a3.053 3.053 0 0 1 -1.82 2.629 2.85 2.85 0 0 1 -.607.2 7.59 7.59 0 0 1 -1.871.253h-.506c-.961-.051-1.062-.1-.961-1.062.2-1.82.455-3.691.708-5.511.1-.91.253-.961 1.112-.758a7.8 7.8 0 0 1 2.73 1.213 2.884 2.884 0 0 1 1.219 3.036z" fill="#873a34" transform="translate(-15257.297 3317.41)"/><path d="m173.546 128.117a7.443 7.443 0 0 0 -1.112-.506c-1.112-.506-1.213-.455-1.77.607a8.162 8.162 0 0 1 -1.972 2.579c-1.517 1.213-3.135 1.719-4.955.809-1.871-.91-2.528-2.629-2.629-4.6a.7.7 0 0 1 .758-.86c.506-.051 1.062-.051 1.567-.1 2.831-.2 5.663-.2 8.494-.506 1.264-.152 1.618-.455 1.719-1.77a11.079 11.079 0 0 0 -.2-2.882 9.125 9.125 0 0 0 -2.68-5.157 8.706 8.706 0 0 0 -6.977-2.073 7.267 7.267 0 0 0 -5.511 3.084 13.384 13.384 0 0 0 -2.376 7.736 15.555 15.555 0 0 0 1.82 7.685c2.427 4.4 7.129 5.511 11.376 3.59 2.629-1.163 4.045-3.489 5.157-6.017.302-.81.1-1.164-.709-1.619zm-12.59-6.371c.354-2.022 1.416-3.691 4.045-3.944a3.948 3.948 0 0 1 4.3 3.236c.2.961.051 1.163-.91 1.264a4.9 4.9 0 0 1 -.86.051c-1.315.1-2.629.2-3.994.3h-1.921a.7.7 0 0 1 -.66-.907z" fill="#873a34" transform="translate(-15275.076 3263.89)"/></svg>