<svg viewBox="0 0 397.6 205" xmlns="http://www.w3.org/2000/svg"><path d="m35 168.3-13.4-19h-12v19h-9.6v-54.5h24.3c12.5 0 20.3 6.6 20.3 17.3 0 9-5.4 14.5-13 16.6l14.7 20.7h-11.3zm-11.5-45.8h-13.9v18.3h14c6.9 0 11.2-3.6 11.2-9.2 0-6-4.2-9.1-11.3-9.1zm44.2 46.8c-12.5 0-21.8-9.6-21.8-21.4s9.4-21.6 22-21.6 21.9 9.6 21.9 21.4c-.1 11.8-9.4 21.6-22.1 21.6zm0-34.7c-7.6 0-12.4 5.9-12.4 13.2s5.2 13.3 12.5 13.3c7.6 0 12.5-5.9 12.5-13.2s-5.2-13.3-12.6-13.3zm36.1 33.7h-9.4v-41.1h9.4v6.4c2.6-3.9 6.5-7.2 12.9-7.2 9.3 0 14.7 6.2 14.7 15.8v26.2h-9.4v-23.4c0-6.4-3.2-10.1-8.8-10.1-5.5 0-9.3 3.8-9.3 10.2v23.2zm60.5 0v-5.1c-2.8 3.4-7.1 5.9-13.3 5.9-7.8 0-14.7-4.4-14.7-12.7v-.2c0-8.9 7.1-13.2 16.7-13.2 5 0 8.2.7 11.4 1.7v-1c0-5.7-3.6-8.8-10.1-8.8-4.6 0-8 1-11.8 2.6l-2.6-7.6c4.5-2 9-3.4 15.7-3.4 12.2 0 18.1 6.4 18.1 17.4v24.4zm.2-17.4c-2.4-.9-5.8-1.6-9.4-1.6-5.9 0-9.4 2.4-9.4 6.6v.2c0 3.9 3.5 6.1 7.9 6.1 6.2 0 10.9-3.5 10.9-8.6zm15.2 17.4v-56.9h9.4v56.9zm47.8 0v-6.9c-3 4.3-7.3 7.7-14 7.7-9.7 0-19.1-7.7-19.1-21.4s9.3-21.4 19.1-21.4c6.8 0 11.1 3.4 14 7.2v-22.1h9.4v56.9zm-11.7-33.8c-6.5 0-11.8 5-11.8 13.2 0 8.1 5.5 13.2 11.8 13.2s11.9-5.2 11.9-13.2-5.6-13.2-11.9-13.2zm42.1 34.6c-5.8 0-12.3-2.1-17.5-6.2l4.2-6.4c4.4 3.4 9.3 5.1 13.5 5.1 4.1 0 6.4-1.7 6.4-4.4v-.2c0-3.2-4.4-4.3-9.2-5.8-6.1-1.7-12.9-4.2-12.9-12.1v-.1c0-7.8 6.5-12.5 14.6-12.5 5.1 0 10.8 1.8 15.1 4.7l-3.7 6.7c-4-2.4-8.2-3.9-11.6-3.9-3.7 0-5.8 1.7-5.8 4.1v.2c0 3 4.4 4.2 9.3 5.8 6 1.9 12.8 4.6 12.8 12v.2c.1 8.5-6.6 12.8-15.2 12.8zm39.6.2c-12.5 0-21.8-9.6-21.8-21.4s9.4-21.6 22-21.6 21.9 9.6 21.9 21.4c-.1 11.8-9.4 21.6-22.1 21.6zm0-34.7c-7.6 0-12.4 5.9-12.4 13.2s5.2 13.3 12.5 13.3c7.6 0 12.5-5.9 12.5-13.2s-5.2-13.3-12.6-13.3zm36.1 33.7h-9.4v-41.1h9.4v6.4c2.6-3.9 6.5-7.2 12.9-7.2 9.3 0 14.6 6.2 14.6 15.8v26.2h-9.4v-23.4c0-6.4-3.2-10.1-8.8-10.1-5.5 0-9.3 3.8-9.3 10.2zm48.8.8c-5.8 0-12.3-2.1-17.5-6.2l4.2-6.4c4.4 3.4 9.3 5.1 13.5 5.1 4.1 0 6.4-1.7 6.4-4.4v-.2c0-3.2-4.4-4.3-9.2-5.8-6.1-1.7-12.9-4.2-12.9-12.1v-.1c0-7.8 6.5-12.5 14.6-12.5 5.1 0 10.8 1.8 15.1 4.7l-3.7 6.7c-4-2.4-8.2-3.9-11.6-3.9-3.7 0-5.8 1.7-5.8 4.1v.2c0 3 4.4 4.2 9.3 5.8 6 1.9 12.8 4.6 12.8 12v.2c0 8.5-6.7 12.8-15.2 12.8z"/><path d="m80.3 191.5c5.3 1.2 7.7 3.1 7.7 6.7 0 4.1-3.4 6.7-8.1 6.7-3.8 0-6.8-1.3-9.7-3.8l1.7-2c2.5 2.2 4.8 3.4 8.1 3.4 3.2 0 5.3-1.7 5.3-4.1 0-2.2-1.2-3.5-6.2-4.5-5.5-1.2-8-2.9-8-6.9 0-3.8 3.3-6.5 7.8-6.5 3.5 0 5.9 1 8.3 2.9l-1.6 2.1c-2.2-1.8-4.4-2.6-6.8-2.6-3.1 0-5.1 1.7-5.1 3.9.1 2.3 1.4 3.5 6.6 4.7zm29.6 13.5c-7.2 0-12.1-5.7-12.1-12.2 0-6.6 4.9-12.3 12.1-12.3s12.1 5.7 12.1 12.2c.1 6.6-4.9 12.3-12.1 12.3zm0-22c-5.4 0-9.3 4.3-9.3 9.8 0 5.4 3.9 9.8 9.4 9.8 5.4 0 9.3-4.3 9.3-9.8 0-5.4-4-9.8-9.4-9.8zm22.6-2.1h2.7v21.3h13.4v2.5h-16v-23.8zm28.6 0v23.7h-2.7v-23.7zm22.5 24.1c-6.8 0-11.9-5.4-11.9-12.2s5-12.3 12-12.3c4.3 0 6.9 1.5 9.3 3.8l-1.8 2c-2-1.9-4.2-3.3-7.5-3.3-5.3 0-9.2 4.2-9.2 9.8 0 5.5 4 9.8 9.2 9.8 3.3 0 5.4-1.3 7.7-3.4l1.8 1.7c-2.5 2.5-5.2 4.1-9.6 4.1zm22.6-24.1v23.7h-2.7v-23.7zm21.3 23.7h-2.7v-21.3h-8v-2.5h18.6v2.5h-8v21.3zm28.9.4c-7.2 0-12.1-5.7-12.1-12.2 0-6.6 4.9-12.3 12.1-12.3s12.1 5.7 12.1 12.2c.1 6.6-4.9 12.3-12.1 12.3zm0-22c-5.4 0-9.3 4.3-9.3 9.8 0 5.4 3.9 9.8 9.4 9.8 5.4 0 9.3-4.3 9.3-9.8 0-5.4-3.9-9.8-9.4-9.8zm38.9 21.6-6.9-9.2h-6.8v9.2h-2.6v-23.7h10.2c5.2 0 8.6 2.8 8.6 7.1 0 4-2.7 6.3-6.4 6.9l7.3 9.7zm-6.3-21.2h-7.3v9.6h7.3c3.6 0 6.1-1.8 6.1-4.9-.1-3-2.3-4.7-6.1-4.7zm28.4 8.1c5.3 1.2 7.7 3.1 7.7 6.7 0 4.1-3.4 6.7-8.1 6.7-3.8 0-6.8-1.3-9.7-3.8l1.7-2c2.5 2.2 4.8 3.4 8.1 3.4 3.2 0 5.3-1.7 5.3-4.1 0-2.2-1.2-3.5-6.2-4.5-5.5-1.2-8-2.9-8-6.9 0-3.8 3.3-6.5 7.8-6.5 3.5 0 5.9 1 8.3 2.9l-1.6 2.1c-2.2-1.8-4.4-2.6-6.8-2.6-3.1 0-5.1 1.7-5.1 3.9.2 2.3 1.4 3.5 6.6 4.7z"/><path d="m210.3 86.9h22.3l-21.2-31c11-4.1 18.6-12.9 18.6-26.9v-.2c0-17.9-12.3-28.7-32.8-28.7h-33.8l10.4 22.2v-4.8l21.8-.1c9.3 0 15 4.2 15 12.4v.2c0 7.3-5.3 12.3-14.6 12.3h-15.3l10.9 16.9z"/><path d="m182.3 82.8-3.6-.7c-5.9-1.1-6.7-2-6.7-14.1v-10.7c0-2.6.3-2.9 4.9-2.9 2.1 0 7.5.4 8.8 1.7l-7.5-12.3-1-1.6h-.2c-.6 0-1.2 0-1.8-.1-.3-.1-.6-.1-.8-.3-.4-.3-.8-.7-1-1.1-.2-.5-.2-.9-.2-1.4-.1-1.1.1-11.1.1-11.1l-13.2-28.2h-14.2c-.9 0-1.3.3-1.5.4-1.1 1-1 3.3-.2 4.3.1.1.4.4.8.5l3.3.7c5.5.8 5.8 2.2 5.8 15.4v46.7c0 12.1-.8 13.1-6.7 14.1l-3.6.7c-1.1.7-1.1 3.3 0 4.1h38.7c.7-.8.7-3.5-.2-4.1z"/></svg>