<svg xmlns="http://www.w3.org/2000/svg" viewBox="0 0 356.039 122.557"><defs><style>.a{fill:#000}</style></defs><path class="a" d="M278.151 57.756v-.066l-.132-3.366.528-.132a3.313 3.313 0 0 1-.792-.132 4.916 4.916 0 0 1-2.112-1.053c-.132-.132-.33-.264-.462-.4-.066 0-.132.066-.2.066a6.585 6.585 0 0 1 .132 1.056 10.7 10.7 0 0 1 .066 1.452 8.791 8.791 0 0 0 .462 3.168 3.555 3.555 0 0 0 .462.858l.066.066c.33-.066.726-.132 1.122-.2.2-.066.33-.132.528-.2.066-.066.066-.132.132-.264a1.828 1.828 0 0 0 .2-.853zM271.748 75.709a1.558 1.558 0 0 0 .528-.594l.33-.594.528-.462c.066-.066.2-.132.264-.2a4.493 4.493 0 0 0-.792.2.242.242 0 0 1-.2.066 3.722 3.722 0 0 1-.792.264 11.2 11.2 0 0 1-1.452.264h-.13c.33.594.726 1.122 1.056 1.65a4.813 4.813 0 0 1 .66-.594zM267.062 46.402l-.066.066a4.626 4.626 0 0 1-.528-.66c.066.264.066.528.132.792v.264c0 .264.066.594.066.858l.528-1.188zM269.966 43.696zM279.339 36.633a8.6 8.6 0 0 1 .66 3.432 6.4 6.4 0 0 0 .066 1.122l1.32 2.574c0-.2-.066-.462-.066-.66l4.026-.726-4.026.594a15.563 15.563 0 0 0-.264-1.848 13.256 13.256 0 0 1-.066-1.584 3.213 3.213 0 0 1 .066-.792c0-.264.066-.462.066-.726a.6.6 0 0 1 .066-.33v-.066a.6.6 0 0 0-.066-.33 1.064 1.064 0 0 0-.264-.462 2.687 2.687 0 0 0-.924-.792c-.4-.264-.792-.462-1.254-.726a8.217 8.217 0 0 1 .66 1.32z"/><path class="a" d="M273.992 25.61c.594 0 1.188.066 1.98.066.726.066 1.32.066 1.65.132l.858.066.792.4c1.716.924 3.366 1.914 5.082 2.838l.066.066.066.066a16.028 16.028 0 0 1 2.112 1.584 9.788 9.788 0 0 1 2.312 3.166 8.488 8.488 0 0 1 .792 3.828 2.707 2.707 0 0 1-.066.726c0 .2-.066.462-.066.66a.6.6 0 0 1-.066.33 3.212 3.212 0 0 0 .066.792c.066.4.066.858.2 1.452h-.33c.066.594.132 1.122.2 1.65a13.256 13.256 0 0 1 .066 1.584 5.717 5.717 0 0 1-.4 2.112 6.209 6.209 0 0 1-.792 1.452 7.211 7.211 0 0 1-1.584 1.584 7.749 7.749 0 0 1-1.782.99 5.262 5.262 0 0 0-1.056.528l-.132.264a3.979 3.979 0 0 1 1.518.4 7.235 7.235 0 0 1 1.386.924c.264.264.462.528.726.792l.066.066.066.132c.066.066.066.132.132.2l.066.066c0 .066.066.066.066.132h.066l.066.066.462.462.2 1.32a15.017 15.017 0 0 1 .132 1.716 11.654 11.654 0 0 1-.462 3.036 17.422 17.422 0 0 1-1.122 3.1 20.5 20.5 0 0 1-1.452 2.97 15.354 15.354 0 0 1-1.122 1.716h1.32v4.092a5.678 5.678 0 0 1-.066 1.056 2.1 2.1 0 0 1-.2.594l-.462 1.254-1.056.792c-.264.2-.594.4-.924.66-.528.726-1.122 1.518-1.716 2.244s-1.254 1.386-1.914 2.046a4.543 4.543 0 0 1 .528.2l.2-.132q4.059-3.465 8.119-6.337l.528-.33.594-.2c.33-.066.858-.33 1.716-.594.858-.4 2.046-.99 3.564-1.65a8.971 8.971 0 0 1 3.432-.858 7.376 7.376 0 0 1 2.9.594l.99.594c.264-.132.528-.264.858-.4a8.972 8.972 0 0 1 3.432-.858 7.376 7.376 0 0 1 2.9.594 7.279 7.279 0 0 1 2.31 1.716l1.056 1.122.066 1.518v.33a8.271 8.271 0 0 1-.858 3.762l-.4.792-.594.594c-.924.792-1.914 1.716-2.9 2.64a10.769 10.769 0 0 1-1.313 1.127h.858l1.254 1.782a2.674 2.674 0 0 1 .33.594h4.224l.264-.66 1.98-.528c1.122-.264 2.178-.594 3.234-.858a20.437 20.437 0 0 1 4.026-.594l.66-.066.594.2a9.622 9.622 0 0 1 1.254.462 4.98 4.98 0 0 1 1.716 1.386 6.406 6.406 0 0 1 1.056 1.848l.4 1.122 1.056-1.056a10.135 10.135 0 0 1 2.112-1.65 10.741 10.741 0 0 1 1.518-.726 9.319 9.319 0 0 1 6.007-2.178c.264 0 .528.066.858.066a46.392 46.392 0 1 0-70.1-59.208c1.319-.134 2.573-.332 3.827-.332zm43.1 6.865h.528a1.42 1.42 0 0 1-.528 0c-4.158.264-4.224 16.106-1.518 17.888 2.838 1.848 3.7-2.508 4.356-4.026 3.828-2.31 11.221-9.5 14.983-12.673 3.828-3.168 12.211-3.828 14.323-3.7-6.007.66-6.007 2.64-6.337 4.686-4.686.858-5.347 5.875-5.347 5.875s-5.413-.726-11.683 7.327c-6.2 5.677 1.518 6.535 2.97 5.677-1.65 2.97-2.64 3.168-1.848 6.337-5.677-.2-4.026-.66-1.518 2.64-.528-.33-.726.594-1.188.33-3.168-5.215-8.119-2.244-9.175-.99-5.677 0-7 .99-5.347 4.224-.33.66-.594-.594-.99.528-1.188-3.366-2.838-1.98-5.545.462-2.838.528-.462.528-4.554 3.366-3.366-6.2.66-12.343-5.017-8.515 7.195-4.356 5.677-16.7.66-17.69 2.31-3.828 5.347-16.9-2.508-19.67 1.32-7.789-4.026-11.221-4.026-11.221 21.919 1.257 24.559 18.287 29.312 19.145z"/><path class="a" d="M340 92.145a1.077 1.077 0 0 1-.792 1.122 22.08 22.08 0 0 1-3.366 2.772c.725-2.309 2.111-3.63 4.158-3.894zm5.413 5.347c.132-.4 0-.66-.33-.726L339.604 100l-1.848 1.254.066-.066a20.355 20.355 0 0 1-3.168 2.112c-1.122 0-1.584-.726-1.32-2.112a5.826 5.826 0 0 1 1.122-2.9 2.245 2.245 0 0 1 .66-.066l.726-.132a10.261 10.261 0 0 0 2.9-2.112 13.6 13.6 0 0 1 2.838-2.31c1.122-2.442.792-3.762-1.122-4.026a5.3 5.3 0 0 0-4.752 1.65 6.763 6.763 0 0 0-2.772 1.716l-2.31 2.31a58.523 58.523 0 0 0-1.254 2.31c-.462 1.32-.462 2.112-.066 2.31a12.675 12.675 0 0 0 1.452 3.366 3.365 3.365 0 0 0 2.97 1.914 13.446 13.446 0 0 1 1.452-.594c.462-.2 1.056-.4 1.65-.66a39.839 39.839 0 0 0 5.677-3.7 22.276 22.276 0 0 1 2.508-1.848 2.8 2.8 0 0 0 .4-.924zm-34.587 17.228c-.066.264-.2.4-.264.66-.99 1.056-1.914 2.112-2.838 3.168a8.1 8.1 0 0 1-3.564 2.376c-.132 0-.264 0-.264-.066a10.642 10.642 0 0 1 2.31-2.838 20.035 20.035 0 0 1 3.036-2.244 16.127 16.127 0 0 1 1.914-1.782 3.539 3.539 0 0 1-.33.726zm10.761-7.195l1.122-.594a16.309 16.309 0 0 0 2.772-1.98c1.188-.924 2.178-1.782 3.1-2.442.858-.594 2.112-1.584 3.7-2.772s2.244-2.046 2.046-2.508c-.264-.462-1.056-.264-2.31.594s-2.31 1.584-2.9 2.046a20.8 20.8 0 0 1-2.178 1.65c-.858.594-1.584 1.122-2.244 1.518a10.753 10.753 0 0 0-1.122.726 1.064 1.064 0 0 1-.462.264l.594-1.386.264-.792.066-.066c.066-.264.132-.726.264-1.254a6.18 6.18 0 0 0 .264-1.056c0 .066 0 0 .066-.066.066-.2.132-.792.264-1.782s.264-1.98.33-2.838l-.066-1.518-.726-1.98a1.666 1.666 0 0 0-1.254-1.122 17.363 17.363 0 0 0-3.234.462l-3.168.792a3.784 3.784 0 0 0-.264.924 49.934 49.934 0 0 0-5.424 5.81q-3.168 3.762-.792 7.327c1.98 1.122 3.7 1.056 5.148-.264s2.838-2.64 4.224-4.026a5.4 5.4 0 0 1 .792-1.32 12.193 12.193 0 0 1-1.386 2.97c-.528.924-.99 1.848-1.452 2.838a6.54 6.54 0 0 0-.726 1.122 2.518 2.518 0 0 1-.726.924 3.083 3.083 0 0 1-1.32 1.584c-.594.4-1.122.792-1.65 1.188a18.7 18.7 0 0 1-2.442 2.112 24.324 24.324 0 0 0-2.442 2.112 14.627 14.627 0 0 0-2.9 2.442c-.924.924-1.782 1.914-2.64 2.772a3.986 3.986 0 0 0-.462 1.98q1.287 1.287 3.366 0a75.892 75.892 0 0 0 3.168-1.914 19.113 19.113 0 0 1 1.782-.858 195.38 195.38 0 0 0 6.8-6.073 5.839 5.839 0 0 1 .792-1.122 10.326 10.326 0 0 0 .792-1.122 16.91 16.91 0 0 0 2.174-3.172zm-7.327-4.488a9.258 9.258 0 0 1 1.848-5.214 18.783 18.783 0 0 1 3.894-4.026h.594v1.98a24.418 24.418 0 0 1-1.65 2.838c-.792.726-1.584 1.452-2.442 2.31-.861.73-1.517 1.517-2.247 2.111zm-15.314-6.271a14.435 14.435 0 0 1 3.1-3.234h.462v1.518a23.725 23.725 0 0 1-1.452 2.442 8.915 8.915 0 0 1-1.716 2.112c-.264.2-.594.4-1.056.726a5.505 5.505 0 0 1-.792.528 7.686 7.686 0 0 1 1.452-4.092zm10.165 4.95l.132-.132a18.521 18.521 0 0 0 2.112-1.122l.528-.4.4-.4.462-.33.594-.66.462-.462.33-.726.264-.792c-.264-.264-.462-.33-.594-.264a14.492 14.492 0 0 0-1.188.924l-.99.858-1.452 1.122-.462.594-.924.264-.264.132-.132.066-.33.264-.924.33-.924.858a13.393 13.393 0 0 1-2.31 1.386 1.668 1.668 0 0 1-1.518-.99 5.042 5.042 0 0 1-.528-2.178 8.6 8.6 0 0 0 .66-.99 7.619 7.619 0 0 0 1.32-1.914 6.942 6.942 0 0 1 1.32-1.782l.264-.924a8.416 8.416 0 0 0 .99-1.65l.066-.066h-.2c.066-.066.066-.066.066-.132a2.181 2.181 0 0 0 0-.924 11.487 11.487 0 0 0-.726-1.188 14.653 14.653 0 0 0-3.366.4c-1.056.264-2.112.528-3.234.792a3.721 3.721 0 0 0-.264.792 46.864 46.864 0 0 0-4.951 5.281q-2.871 3.465-.792 6.733a3.66 3.66 0 0 0 3.5.4 11.285 11.285 0 0 0 2.9-2.112q1.485 2.376 3.366 2.376c.528-.264 1.122-.462 1.65-.726a18.844 18.844 0 0 0 1.782-.792c1.122-.792 1.98-1.386 2.508-1.782l.066-.066a.262.262 0 0 0 .33-.066c-.132.066-.066 0 0 0zm-10.3-16.9a8.811 8.811 0 0 1 .4-.792 152.61 152.61 0 0 0 3.3-3.168 8.935 8.935 0 0 1 4.092-2.244c.132 0 .2.066.33.066a8.126 8.126 0 0 1-2.64 2.97 16.356 16.356 0 0 1-3.564 2.112c-.726.594-1.122.99-1.32 1.122s-.462.33-.924.594a1.548 1.548 0 0 0 .33-.66zm-3.432 12.673c.066-.462 0-.792-.4-.924a.824.824 0 0 0-.858.264c-.264.2-.33.264-.264.4s-.066.2-.33.264c-.264.2-1.122.924-2.64 2.31-1.518 1.32-2.508 1.98-2.838 1.98a8.754 8.754 0 0 1 1.452-4.158 43.22 43.22 0 0 0 2.112-3.828 3.452 3.452 0 0 0 .792-1.122 2.825 2.825 0 0 1 .924-1.056 3.086 3.086 0 0 1 1.452-1.584c.66-.33 1.32-.726 1.98-1.122a14.814 14.814 0 0 1 2.838-2.046 17.2 17.2 0 0 0 2.838-2.046 13.494 13.494 0 0 0 3.366-2.376c1.056-.99 2.046-1.914 3.036-2.838a4.974 4.974 0 0 0 .462-2.178 3.157 3.157 0 0 0-3.96-.594c-1.65.726-2.838 1.254-3.7 1.716-.924.33-1.65.594-2.112.726a98.589 98.589 0 0 0-7.789 6.073 7.6 7.6 0 0 1-.924 1.122 12.69 12.69 0 0 0-.858 1.122 8.258 8.258 0 0 0-2.371 3.231 11.349 11.349 0 0 1-2.178 3.366l-.132.264-.726 1.98-.4.858v.066c-.066.33-.2.792-.33 1.452s-.264.99-.264 1.188c.066 1.32.066 2.574.132 3.7s.858 1.782 2.574 1.98c.462-.4 1.188-.924 2.112-1.65a15.608 15.608 0 0 0 3.564-2.64 48.584 48.584 0 0 1 3.5-2.97c-.264-.2-.2-.462-.066-.924zm-4.951-12.673a8.812 8.812 0 0 1 .4-.792 152.61 152.61 0 0 0 3.3-3.168 8.935 8.935 0 0 1 4.092-2.244c.132 0 .2.066.33.066a8.126 8.126 0 0 1-2.64 2.97 16.355 16.355 0 0 1-3.564 2.112c-.726.594-1.122.99-1.32 1.122s-.462.33-.924.594l.33-.66zm-3.5 12.673c.066-.462 0-.792-.4-.924a.824.824 0 0 0-.858.264c-.264.2-.33.264-.264.4s-.066.2-.33.264c-.264.2-1.122.924-2.64 2.31-1.518 1.32-2.508 1.98-2.838 1.98a8.754 8.754 0 0 1 1.452-4.158 43.235 43.235 0 0 0 2.112-3.828 3.452 3.452 0 0 0 .792-1.122 2.825 2.825 0 0 1 .924-1.056 3.086 3.086 0 0 1 1.452-1.584c.66-.33 1.32-.726 1.98-1.122a14.815 14.815 0 0 1 2.838-2.046 17.2 17.2 0 0 0 2.838-2.046 11.984 11.984 0 0 0 3.366-2.376c1.056-.99 2.046-1.914 3.036-2.838a4.145 4.145 0 0 0 .4-2.178 3.157 3.157 0 0 0-3.96-.594c-1.65.726-2.838 1.254-3.7 1.716-.924.33-1.65.594-2.112.726a87.809 87.809 0 0 0-7.789 6.073 7.6 7.6 0 0 1-.924 1.122 12.69 12.69 0 0 0-.858 1.122 8.258 8.258 0 0 0-2.376 3.234 11.348 11.348 0 0 1-2.178 3.366l-.132.264-.726 1.98-.4.858v.066c-.066.33-.2.792-.33 1.452s-.264.99-.264 1.188c.066 1.32.066 2.574.132 3.7s.858 1.782 2.574 1.98c.462-.4 1.188-.924 2.112-1.65a15.608 15.608 0 0 0 3.564-2.64 48.584 48.584 0 0 1 3.5-2.97c-.132-.2-.132-.462 0-.924zm-7.987-11.353a1.709 1.709 0 0 0-2.574.594 8.458 8.458 0 0 0-.726 1.32c-.462 1.056-.4 1.716.264 1.98a19.837 19.837 0 0 0 2.112-.462 8.125 8.125 0 0 1 1.32-.132 3.763 3.763 0 0 0 .858-.066 12.323 12.323 0 0 0 .462-1.452c.132-.528.2-.792.066-.792-.594-.4-1.254-.66-1.782-.99zm-15.644 17.822c-.066.726.2 1.122.594 1.254a4.334 4.334 0 0 0 2.244.528.917.917 0 0 0 .726-.132 3.721 3.721 0 0 1 .792-.264c.264 0 .462.066.726.066a1.356 1.356 0 0 0 .726 0 7.3 7.3 0 0 0 1.782-.792 21.264 21.264 0 0 1 2.574-1.65c.858-.528 1.65-1.122 2.574-1.716a2.006 2.006 0 0 0 .33-.462 1.631 1.631 0 0 1 1.32-.924 4.032 4.032 0 0 0 .924-.462 7.931 7.931 0 0 0 1.716-1.914c.2-.264.132-.4 0-.462-.2 0-.33-.132-.4-.462-1.122.528-1.65.792-1.518.726-.594.462-1.188.858-1.782 1.254a3.557 3.557 0 0 1-.858.462 3.556 3.556 0 0 0-.858.462 2.472 2.472 0 0 0-.858.792 4.5 4.5 0 0 1-.792.792 3.112 3.112 0 0 1-.99.4 3.784 3.784 0 0 0-.924.264 7.5 7.5 0 0 1-3.7 1.188c-.924-.066-1.122-.594-.462-1.518a21.4 21.4 0 0 1 2.442-3.036c.99-1.122 1.98-2.112 2.838-3.036s1.122-1.452.726-1.65c-.726-.2-1.65.264-2.838 1.254a2.005 2.005 0 0 0-.33.462 2.006 2.006 0 0 1-.33.462 7.776 7.776 0 0 1-1.254.726 5.4 5.4 0 0 0-1.32.792 3.3 3.3 0 0 0-.726 1.122 12.252 12.252 0 0 1-.726 1.254 10.145 10.145 0 0 1-1.122 1.254 2.753 2.753 0 0 0-.594 1.056 3.194 3.194 0 0 0-.66 1.914zm1.455-15.903c-.132.2-.33.4-.462.594s-.4.462-.726.858c-.33.33-.792.792-1.254 1.32-.33.4-.66.792-.99 1.122a16.063 16.063 0 0 1-1.32 1.65 1.38 1.38 0 0 0-.264.4l.066-.594a15.017 15.017 0 0 1 .132-1.716.4.4 0 0 0 .066-.264.7.7 0 0 1 .132-.33l1.188-7.195h-.066a21.957 21.957 0 0 0 .2-4.158 30.431 30.431 0 0 1 .132-4.224 2.345 2.345 0 0 1 .264-.594 18.91 18.91 0 0 0 .462-1.848 8.562 8.562 0 0 0 .924-2.112 9.942 9.942 0 0 1 .924-2.31c-.066-.066-.066-.4-.264-.792a3.55 3.55 0 0 0-2.376 1.848 22.858 22.858 0 0 0-6.271 4.95 2.512 2.512 0 0 0 .528 1.122.837.837 0 0 0 .4-.066 1.123 1.123 0 0 1 .462-.066c.726-.99 1.254-1.584 1.65-1.65a3.763 3.763 0 0 1 .066.858 4.564 4.564 0 0 0-.264 2.64 4.141 4.141 0 0 1-.4 2.508 27.267 27.267 0 0 1-1.122 5.611l.066.066c-.462 2.442-.858 4.29-1.188 5.479a8.491 8.491 0 0 1-.264 1.254 26.117 26.117 0 0 1-1.32 5.545c-.594 1.782-1.188 3.564-1.716 5.413a2.525 2.525 0 0 0-.858 1.65q-.792 1.584-1.782 3.366a9.026 9.026 0 0 0-1.188 3.7c-.4.4-1.056 1.188-2.046 2.376s-1.122 2.112-.33 2.64a2.506 2.506 0 0 0 1.584-1.254 13.219 13.219 0 0 0 .99-1.914 10.352 10.352 0 0 0 2.31-2.508c.66-.99 1.386-1.914 2.112-2.838a5.244 5.244 0 0 1 .4-1.452 7.6 7.6 0 0 0 .924-1.122 2.188 2.188 0 0 0 .594-1.32c.066-.066.462-.4 1.254-.99a5.123 5.123 0 0 0 1.452-.792 4.062 4.062 0 0 1 .462-1.518 3.317 3.317 0 0 0 .4-1.584c.066-.066.066-.066.066-.132l.066-.264 1.584-1.452a8.679 8.679 0 0 0 1.452-1.65 9.432 9.432 0 0 0 1.98-2.31 26.4 26.4 0 0 0 4.752-5.413 5.389 5.389 0 0 1 .924-1.716v-.066a12.21 12.21 0 0 1 2.64-2.574c.066-.066.066-.066.132-.066h-.066c.4-.4.792-.792 1.188-1.122a28.077 28.077 0 0 0 1.65-2.64 3.766 3.766 0 0 0 .858-.924 12.043 12.043 0 0 0 2.244-2.244c.726-.924 1.386-1.782 2.046-2.64a33.71 33.71 0 0 1 1.452-.924.837.837 0 0 0 .066-.4h-.33a1.5 1.5 0 0 1-.264-.066 21.6 21.6 0 0 0-5.413 3.63 5.5 5.5 0 0 1-1.716 1.98 8.775 8.775 0 0 0-1.914 1.914c-.726.594-1.32 1.188-1.98 1.782-.594.594-1.254 1.122-1.98 1.716zm-35.907 6.6c-.528.792-.99 1.65-1.452 2.508-.462.462-1.32 1.386-2.64 2.64s-2.31 1.782-3.168 1.65a18.9 18.9 0 0 1 1.584-2.772c.594-.924 1.188-1.782 1.716-2.772a32.539 32.539 0 0 1 5.281-3.828 8.673 8.673 0 0 1-1.32 2.574zm-9.571 2.442a13.093 13.093 0 0 0-1.65 3.5 6.2 6.2 0 0 0-.264 3.63 2.531 2.531 0 0 0 3.1.66c1.122-.528 2.178-.99 3.168-1.452a2.975 2.975 0 0 1 .924-.66 1.345 1.345 0 0 0 .132.726c.066.066 0 .2-.264.4a2.827 2.827 0 0 0 .4 1.452c1.254 0 2.178-.066 2.838-.066a8.5 8.5 0 0 0 4.026-1.254c1.32-.858 2.838-1.782 4.554-2.838a31.512 31.512 0 0 0 3.168-1.914c.33-.2.792-.4 1.452-.726.594-.264.924-.66.858-1.122-.066-.858-.4-1.254-.792-1.188a13.3 13.3 0 0 0-3.036 1.584 26.731 26.731 0 0 0-3.96 2.772 4.509 4.509 0 0 1-2.112 1.188 17.9 17.9 0 0 1-2.706.594 10.852 10.852 0 0 0 .924-1.452c.528-.594 1.122-1.254 1.716-1.98s1.188-1.386 1.782-2.046c.066-.132.2-.2.264-.33.594-.924 1.452-2.31 2.64-4.026s2.112-3.3 2.97-4.554c.792-1.254 1.65-2.574 2.508-3.828s1.65-2.64 2.442-3.96a16.794 16.794 0 0 0 4.488-5.809 3.225 3.225 0 0 0 1.122-1.98 3.542 3.542 0 0 0-2.838 1.65 32.062 32.062 0 0 0-2.112 2.706 6.539 6.539 0 0 0-1.122.726c-.33.264-1.254.858-2.772 1.98a7.416 7.416 0 0 1-1.32 1.188 3.062 3.062 0 0 0-.924 1.452 16.466 16.466 0 0 1-1.65 2.508 16.468 16.468 0 0 0-1.65 2.508c-.066.066-.132.066-.264.066-.264 1.122-1.716 2.046-4.356 2.838s-4.488 1.254-5.413 1.584c-.792.4-1.584.792-2.31 1.188s-1.518.792-2.244 1.254a11.585 11.585 0 0 0-1.716 3.036zm-2.178-4.95a1.077 1.077 0 0 1-.792 1.122 22.081 22.081 0 0 1-3.366 2.772c.66-2.31 2.046-3.63 4.158-3.894zm5.413 5.347c.132-.4 0-.66-.33-.726l-5.479 3.234-1.848 1.254.066-.066a20.354 20.354 0 0 1-3.168 2.112c-1.122 0-1.584-.726-1.32-2.112a5.826 5.826 0 0 1 1.122-2.9 2.035 2.035 0 0 1 .66-.066l.726-.132a10.261 10.261 0 0 0 2.9-2.112 13.6 13.6 0 0 1 2.838-2.31c1.122-2.442.792-3.762-1.122-4.026a5.3 5.3 0 0 0-4.752 1.65 6.762 6.762 0 0 0-2.772 1.716l-2.31 2.31a58.523 58.523 0 0 0-1.254 2.31c-.462 1.32-.462 2.112-.066 2.31a12.675 12.675 0 0 0 1.452 3.366 3.365 3.365 0 0 0 2.97 1.914 13.443 13.443 0 0 1 1.452-.594c.462-.2 1.056-.4 1.65-.66a39.84 39.84 0 0 0 5.677-3.7 22.276 22.276 0 0 1 2.508-1.848 2.8 2.8 0 0 0 .4-.924zm-13.267.858a1.559 1.559 0 0 0 .4-.594 5.5 5.5 0 0 0 .264-.99c-.4.132-.726.264-.924.33h-.066a6.427 6.427 0 0 1-1.584.99c-.264.2-1.518.924-3.7 2.244a14.666 14.666 0 0 1-3.828 1.914 10.987 10.987 0 0 1 1.783-3.764c.858-1.254 1.716-2.442 2.508-3.564a12.219 12.219 0 0 1 3.1-2.706l-.066-.066c.462-.594 1.188-1.65 2.112-2.97l2.838.594 1.056-.2 1.254.066 1.848.264 1.32-.132 1.386-.594 1.452.264.858-.4.066-.264-.858-1.122-2.838-.066-2.97-.264-2.046-.2h-1.914a12.435 12.435 0 0 1 2.046-2.112 5.981 5.981 0 0 1 .726-1.056 3.121 3.121 0 0 0 .462-.792 6.987 6.987 0 0 0 1.914-1.452 7.869 7.869 0 0 0 3.3-3.1 4.509 4.509 0 0 1 3.762-2.31 2.483 2.483 0 0 1 1.386-.066 1.307 1.307 0 0 0 1.188-.264v-.792a.911.911 0 0 1-.264-.2.515.515 0 0 1-.264-.264c-1.452-.066-2.31-.132-2.64-.132h-1.452a21.3 21.3 0 0 1-2.244.99c-.726.66-1.452 1.386-2.112 2.112s-1.32 1.452-2.046 2.112a5.016 5.016 0 0 0-2.838 1.65 5.209 5.209 0 0 0-1.98.792 7.313 7.313 0 0 1-1.914.924 9.432 9.432 0 0 0-.924 1.32c-.2.264-.4.66-.726 1.122-.066.594-.066.792-.066.726h-.792c-.264 0-.462-.066-.66-.066l-.264.066-.594-.132h-.4a2.859 2.859 0 0 1-.33-.066l-.594.132-1.65.066-3.1.528-.594.264-.4 1.254.2.528 1.254.066.528.4 1.056-.066.66-.132h1.518l1.452-.132a6.087 6.087 0 0 0-1.914 1.98 8.915 8.915 0 0 1-1.716 2.112c-.066.066-.066.264-.132.33a.4.4 0 0 0-.066.264l-.264-.066a10.146 10.146 0 0 1-.792.858l-.2.264-1.122 1.98-.462.924-.066.066c-.132.33-.33.792-.594 1.452a12.334 12.334 0 0 0-.462 1.188c-.2 1.32-.33 2.64-.462 3.7-.132 1.122.594 1.782 2.244 1.848a3.282 3.282 0 0 1 1.386-.594 2.718 2.718 0 0 0 1.386-.66 29.617 29.617 0 0 0 4.554-2.9c1.98-1.452 3.432-2.508 4.488-3.234-.132.132-.066 0 .132-.2zm-28.383 7.459a2.108 2.108 0 0 0 1.584-.726 2.218 2.218 0 0 0 1.056-.66c.264-.4.99-1.65 2.112-3.7.99-.726 2.112-1.452 3.432-2.31a1.384 1.384 0 0 1 .726-.264.643.643 0 0 1 .264.594 11.583 11.583 0 0 1-.792 2.112 2.591 2.591 0 0 0-.2.924 2.468 2.468 0 0 1-.66 1.65 1.509 1.509 0 0 0-.462.66 2.447 2.447 0 0 0-.264.924c-.264.726-.066.99.594.858a2.438 2.438 0 0 0 .924-.462c.462-.33.792-.528.924-.66a10.029 10.029 0 0 0 3.63-2.31 2.675 2.675 0 0 0 .594-.33l.066-.066c.066-.066.066-.066.132-.066.726-.4.99-.594.858-.462.726-.594 1.518-1.254 2.508-1.98a6.589 6.589 0 0 0 1.584-1.452 2.175 2.175 0 0 0 0-.924c-.066-.4-.462-.264-1.254.264q-1.485.891-2.97 1.98a25.511 25.511 0 0 0-2.97 2.31h.066l-.066.066h-.066c.264-.4.726-1.32 1.452-2.772a1.516 1.516 0 0 0 .264-.924 1.863 1.863 0 0 1 .264-.99 2.769 2.769 0 0 1 .594-.924 4.426 4.426 0 0 0 .594-.924c.792-2.112.792-2.97-.066-2.508a2.769 2.769 0 0 0-.924.594c-.066 0-.066 0-.066.066.066-.066-.4.264-1.452.792a4.269 4.269 0 0 0-.594.528l-.594.594a6.663 6.663 0 0 0-.99.462c-.066.066-.132.066-.2.132s-.066.066-.132.066c-.2.066-.4.264-.726.4-.33.264-.726.528-1.056.792a9.245 9.245 0 0 1-1.056.66c.2-.264.33-.594.528-.924.2-.264.33-.594.528-.924a1.927 1.927 0 0 0 .132-.594 1.927 1.927 0 0 1 .132-.594 3.627 3.627 0 0 1 .462-.594 1.78 1.78 0 0 0 .462-.528c.4-1.122.066-1.452-.924-.99l-.264.264-.2.2a2.345 2.345 0 0 0-.594.264 3.792 3.792 0 0 1-1.452.99 2.8 2.8 0 0 0-1.188 1.122c-.264.4-.726 1.254-1.386 2.508a1.758 1.758 0 0 0-.2.792 3.313 3.313 0 0 1-.132.792 1.437 1.437 0 0 1-.462.594 1.053 1.053 0 0 0-.462.594 6.848 6.848 0 0 1-.264.66 5.234 5.234 0 0 1-.264.594.7.7 0 0 0-.066.528.564.564 0 0 1 0 .462 1.343 1.343 0 0 1-.4.462 1.75 1.75 0 0 0-.33.4c-.132.33-.4.792-.66 1.32-.66.462-.462.66.33.594zm-13.072-1.586l2.112-1.32c1.056 1.782 2.31 2.706 3.7 2.706.594-.264 1.188-.462 1.716-.726s1.188-.462 1.848-.792a40.334 40.334 0 0 0 4.026-2.376c.264-.2.462-.33.726-.528a3.316 3.316 0 0 1 .792-.528c.264-.132.462-.264.792-.462a8.418 8.418 0 0 0 .792-.462 12.277 12.277 0 0 0 1.848-1.386l.264-1.716-.858.264a20.93 20.93 0 0 1-1.914 1.32 1.779 1.779 0 0 0-.528.462 1.779 1.779 0 0 1-.528.462c-.4.264-.858.528-1.188.726a13.09 13.09 0 0 0-1.32.726 38.948 38.948 0 0 1-5.413 2.97 1.3 1.3 0 0 1-1.386-1.056v-.066a5.143 5.143 0 0 1 .2-2.442c.066-.066.264-.2.4-.33a2.466 2.466 0 0 1 .462-.4c1.452-1.32 2.376-2.31 2.97-2.772v-1.122a6.54 6.54 0 0 1 .726-1.122 1.2 1.2 0 0 0 .066-1.32c-.858-.132-1.452-.066-1.782.264-.462.4-.924.792-1.452 1.188a4.773 4.773 0 0 1-1.122 1.452c-.462.4-.858.792-1.254 1.188a8.193 8.193 0 0 0-2.97 2.64 7.8 7.8 0 0 1-3.036 2.442 3.214 3.214 0 0 1 .066-.792 12.817 12.817 0 0 0 .132-1.584 20.311 20.311 0 0 0 .99-1.848c.4-.792.924-1.65 1.32-2.574a3.086 3.086 0 0 0 .858-2.244c-.4-.4-.99-.4-1.914 0a4.341 4.341 0 0 1-1.386 1.914 6.894 6.894 0 0 0-1.518 1.848 9.9 9.9 0 0 0-1.254 1.65h.066a13.929 13.929 0 0 0-1.32 2.838 3.721 3.721 0 0 1-.264.792 2.345 2.345 0 0 0-.132.66v.33c.726 1.98 2.046 2.64 3.96 1.914a6.439 6.439 0 0 1 1.716-.792zm-15.578-7.459a14.435 14.435 0 0 1 3.1-3.234h.462v1.518a23.731 23.731 0 0 1-1.452 2.442 8.914 8.914 0 0 1-1.716 2.112c-.264.2-.594.4-1.056.726a5.507 5.507 0 0 1-.792.528 8.281 8.281 0 0 1 1.452-4.092zm10.165 4.95l.132-.132a18.523 18.523 0 0 0 2.112-1.122l.528-.4.4-.4.462-.33.594-.66.462-.462.33-.726.264-.792c-.264-.264-.4-.33-.594-.264a14.5 14.5 0 0 0-1.188.924l-.99.858-1.452 1.122-.462.594-.924.264-.2.066-.132.066-.33.264-.924.33-.924.858a13.391 13.391 0 0 1-2.31 1.386 1.668 1.668 0 0 1-1.518-.99 5.042 5.042 0 0 1-.528-2.178 8.6 8.6 0 0 0 .66-.99 7.618 7.618 0 0 0 1.32-1.914 6.942 6.942 0 0 1 1.32-1.782l.264-.924a8.415 8.415 0 0 0 .99-1.65l.066-.066h-.066c.066-.066.066-.066.066-.132a2.181 2.181 0 0 0 0-.924 11.483 11.483 0 0 0-.726-1.188 14.653 14.653 0 0 0-3.366.4c-1.056.264-2.112.528-3.234.792a3.72 3.72 0 0 0-.264.792 46.866 46.866 0 0 0-4.95 5.281q-2.871 3.465-.792 6.733a3.66 3.66 0 0 0 3.5.4 11.284 11.284 0 0 0 2.9-2.112q1.485 2.376 3.366 2.376c.528-.264 1.122-.462 1.65-.726a18.848 18.848 0 0 0 1.782-.792c1.122-.792 1.98-1.386 2.508-1.782l.066-.066a.091.091 0 0 0 .132 0c-.066.066-.066 0 0 0zm-49.767 14.192l1.65-1.65a15.889 15.889 0 0 0 3.168-1.98c.99-.792 1.98-1.584 3.036-2.31a7.235 7.235 0 0 1 .924-1.386 8.149 8.149 0 0 0 1.32-.858 2.8 2.8 0 0 0 1.122-1.188l1.452-.726a5.189 5.189 0 0 0 1.716-.528 5.286 5.286 0 0 1 .99-1.386 2.639 2.639 0 0 0 .924-1.452 1.224 1.224 0 0 0 .462-.792 3.556 3.556 0 0 1 .462-.858 5.927 5.927 0 0 1 .858-1.848 15.353 15.353 0 0 0 1.122-1.716c.33-.858.66-1.65 1.056-2.508a7.937 7.937 0 0 1 3.5-2.838 15.492 15.492 0 0 0 2.97-1.452 7.035 7.035 0 0 1 3.234-.924c-.2.4-.33.792-.4.924a11.624 11.624 0 0 1-.924 1.518 14.493 14.493 0 0 0-1.122 1.65 4.416 4.416 0 0 1-.924 1.254 9.847 9.847 0 0 1-1.188 1.98 121.868 121.868 0 0 1-3.432 6.4c-.264.792-.462 1.386-.594 1.716s-.462 1.122-.924 2.244a11.651 11.651 0 0 1-1.452 4.422 3.648 3.648 0 0 1 .066.594 4.676 4.676 0 0 1 .924-.066 5.164 5.164 0 0 1 1.188-2.31 10.053 10.053 0 0 0 1.452-2.244 14.5 14.5 0 0 0 .924-1.188 3.05 3.05 0 0 1 1.122-1.122 10.053 10.053 0 0 1 1.98-2.442 8.2 8.2 0 0 0 1.914-2.574 9.6 9.6 0 0 0 1.716-2.838 27.689 27.689 0 0 0 4.29-6.6 4.918 4.918 0 0 1 .99-2.508 5.3 5.3 0 0 0 1.98-.4 39.506 39.506 0 0 0 4.026-.462c1.32-.264 2.706-.462 4.026-.66.264-.4.792-.594 1.716-.66a10.211 10.211 0 0 0 2.046-.4.47.47 0 0 1 .2-.4 4.814 4.814 0 0 1-.594-.726 70.837 70.837 0 0 0-11.221.924 7.415 7.415 0 0 1 1.188-1.32 16.122 16.122 0 0 1 .66-1.584c.264-.528.462-1.122.726-1.65a3.745 3.745 0 0 0 .792-1.188 17.091 17.091 0 0 0 2.112-2.772c.594-1.056 1.188-2.112 1.716-3.1.594-.462 1.122-.924 1.518-1.188v-.462h-.924a22.071 22.071 0 0 0-5.611 4.554 4.78 4.78 0 0 1-1.518 2.376 8.661 8.661 0 0 0-1.782 2.31c-.726.726-1.32 1.452-1.98 2.178a19.777 19.777 0 0 1-1.98 2.112 33.45 33.45 0 0 0-3.564.594 33.767 33.767 0 0 1-3.564.66 2.064 2.064 0 0 1-1.254.264 26.313 26.313 0 0 0 1.65-3.96 42.473 42.473 0 0 1 1.584-4.026 1.026 1.026 0 0 0 .4-.528 14.046 14.046 0 0 1 1.122-1.65 9.326 9.326 0 0 0 1.65-1.914 11.946 11.946 0 0 1 1.65-1.98c0-.132.066-.264.066-.4a4.742 4.742 0 0 0-3.036 1.32 36.482 36.482 0 0 0-4.026 1.584 26.2 26.2 0 0 0-3.762 2.112 3.088 3.088 0 0 0 .132 1.122h.924a4.723 4.723 0 0 1 2.178-1.254 5.506 5.506 0 0 1-.264.792 5.883 5.883 0 0 0-1.187 2.519 4.7 4.7 0 0 1-1.254 2.31 33.168 33.168 0 0 1-3.1 5.347 6.962 6.962 0 0 0-1.584.4 17.92 17.92 0 0 1-1.848.066 7.233 7.233 0 0 0-1.716.4 1.793 1.793 0 0 0 .66 1.914 17.307 17.307 0 0 1 1.65 1.452 4.269 4.269 0 0 1-.726 1.914 27.7 27.7 0 0 1-3.168 5.148c-1.188 1.584-2.376 3.168-3.5 4.818a3.5 3.5 0 0 0-1.386 1.386 60.02 60.02 0 0 1-2.9 2.9 8.7 8.7 0 0 0-2.376 3.366 30.077 30.077 0 0 0-2.838 1.914c-1.386.99-1.782 1.848-1.254 2.508a3.547 3.547 0 0 0 1.98-.99zm-5.347-23.762a1.077 1.077 0 0 1-.792 1.122 22.083 22.083 0 0 1-3.366 2.772 4.679 4.679 0 0 1 4.158-3.894zm5.347 5.347c.132-.4 0-.66-.33-.726l-5.479 3.234-1.848 1.254.066-.066a20.354 20.354 0 0 1-3.168 2.112c-1.122 0-1.584-.726-1.254-2.112a5.826 5.826 0 0 1 1.122-2.9 2.035 2.035 0 0 1 .66-.066l.726-.132a10.261 10.261 0 0 0 2.9-2.112 13.6 13.6 0 0 1 2.838-2.31c1.122-2.442.792-3.762-1.122-4.026a5.3 5.3 0 0 0-4.752 1.65 6.762 6.762 0 0 0-2.772 1.716l-2.31 2.31a58.523 58.523 0 0 0-1.254 2.31c-.462 1.32-.462 2.112-.066 2.31a12.675 12.675 0 0 0 1.452 3.366 3.365 3.365 0 0 0 2.97 1.914 13.443 13.443 0 0 1 1.452-.594c.462-.2 1.056-.4 1.65-.66a39.84 39.84 0 0 0 5.677-3.7 22.275 22.275 0 0 1 2.508-1.848 8.008 8.008 0 0 0 .33-.924zm-10.693-24.29c-.33 0-.792.066-1.386.066-.33.2-.726.4-1.056.594-.4.2-.726.4-1.056.594a15.2 15.2 0 0 0-1.848 2.244l-1.716 2.31a5.078 5.078 0 0 0-2.574 1.782 5.3 5.3 0 0 0-1.914.99 6.978 6.978 0 0 1-1.716 1.122l-.792 1.386a6.039 6.039 0 0 1-.594 1.122 2.018 2.018 0 0 1-1.188 1.914 5.622 5.622 0 0 0-1.122 1.65 4.744 4.744 0 0 0-1.65 2.112 12.276 12.276 0 0 1-1.452 2.31c-.264.924-.528 1.452-.924 1.452 0 .2-.066.462-.066.66a14 14 0 0 0-1.386 2.376c-.33.792-.726 1.584-1.122 2.376a12.269 12.269 0 0 0 .264 2.178l-.594 1.386a1.308 1.308 0 0 0 .132 1.452c.924.2 1.584.066 1.914-.33a9.549 9.549 0 0 1 1.452-1.386 4.764 4.764 0 0 1 .924-1.584c.4-.462.858-.924 1.254-1.452a7.844 7.844 0 0 0 2.9-2.97 6.8 6.8 0 0 1 3.1-2.838 2.181 2.181 0 0 1 0 .924 16.084 16.084 0 0 0 .066 1.782c-.2.528-.4 1.254-.792 2.112s-.726 1.848-1.122 2.9a3.511 3.511 0 0 0-.594 2.574c.792.792 2.244.4 4.356-1.254s3.564-2.706 4.356-3.234c1.056-.66 2.112-1.254 3.1-1.782s1.452-.924 1.32-1.254-.594-.33-1.452 0c-.792.4-1.584.726-2.31 1.056-.726.4-1.386.792-2.046 1.122s-1.452.792-2.244 1.188l-.726.4a2.344 2.344 0 0 0 .264-.594 6.47 6.47 0 0 0 1.452-2.64 4.859 4.859 0 0 1 .33-.4c.2-.462.4-.858.594-1.254a2.457 2.457 0 0 0 .132-1.188l-.2-.792c-.066-.264-.066-.528-.132-.792-.264-.462-.66-.924-.99-1.386l-.594-.4-.33-.264a3.358 3.358 0 0 0-2.97-.066c-.066-.066-.132-.132-.2-.132.726-1.254 1.452-2.508 2.112-3.828a26.658 26.658 0 0 1 2.508-3.564c.594-1.254.858-1.848.924-1.914a6.535 6.535 0 0 0 1.65-1.65 7.448 7.448 0 0 0 2.838-3.366 4.12 4.12 0 0 1 3.5-2.574 2.548 2.548 0 0 1 1.386-.2 1.344 1.344 0 0 0 1.188-.33c-.066-.066-.066-.264-.066-.4a.837.837 0 0 1-.066-.4c.132.066-.066-.066-.66-.33a6.9 6.9 0 0 1-2.366.413zM82.97 98.351a1.559 1.559 0 0 0 .4-.594 5.5 5.5 0 0 0 .264-.99c-.4.132-.726.264-.924.33h-.066a6.427 6.427 0 0 1-1.584.99c-.264.2-1.518.924-3.7 2.244a14.666 14.666 0 0 1-3.828 1.914 10.987 10.987 0 0 1 1.782-3.762c.858-1.254 1.716-2.442 2.508-3.564a12.219 12.219 0 0 1 3.1-2.706l-.066-.066c.462-.594 1.188-1.65 2.112-2.97l2.838.594 1.056-.2 1.254.066 1.848.264 1.32-.132 1.386-.594 1.452.264.858-.4.066-.264-.859-1.12-2.838-.066-2.97-.264-2.046-.2h-1.914a12.436 12.436 0 0 1 2.046-2.112 5.981 5.981 0 0 1 .726-1.056 3.121 3.121 0 0 0 .462-.792 6.987 6.987 0 0 0 1.914-1.452 7.869 7.869 0 0 0 3.3-3.1 4.509 4.509 0 0 1 3.762-2.31 2.483 2.483 0 0 1 1.386-.066 1.307 1.307 0 0 0 1.188-.264v-.792a.911.911 0 0 1-.264-.2.515.515 0 0 1-.264-.264c-1.452-.066-2.31-.132-2.64-.132h-1.448a21.3 21.3 0 0 1-2.244.99c-.726.66-1.452 1.386-2.112 2.112s-1.32 1.452-2.046 2.112a5.016 5.016 0 0 0-2.838 1.65 5.209 5.209 0 0 0-1.98.792 7.313 7.313 0 0 1-1.914.924 9.434 9.434 0 0 0-.924 1.32c-.2.33-.4.66-.726 1.122-.066.594-.066.792-.066.726h-.792c-.264 0-.462-.066-.66-.066l-.264.066-.594-.132h-.4a2.859 2.859 0 0 1-.33-.066l-.594.132-1.65.066-3.1.528-.594.264-.4 1.254.2.528 1.254.066.528.4 1.056-.066.66-.132h1.518l1.452-.132a6.087 6.087 0 0 0-1.914 1.98 8.915 8.915 0 0 1-1.716 2.112c-.066.066-.066.264-.132.33a.4.4 0 0 0-.066.264l-.264-.066a10.154 10.154 0 0 1-.792.858l-.2.264-1.122 1.98-.462.924-.066.066c-.132.33-.33.792-.594 1.452a12.33 12.33 0 0 0-.462 1.188c-.2 1.32-.33 2.64-.462 3.7-.132 1.122.594 1.782 2.244 1.848a3.282 3.282 0 0 1 1.386-.594 2.718 2.718 0 0 0 1.386-.66 29.615 29.615 0 0 0 4.554-2.9c1.98-1.452 3.432-2.508 4.488-3.234-.2.132-.066 0 .132-.2zM42.376 16.37a22.277 22.277 0 0 1-1.056-5.545 6.947 6.947 0 0 1 .462-2.64C39.67 5.016 37.558 3.3 35.577 2.97l-.858.528C28.383 1.188 23.5 0 20.264 0a13.822 13.822 0 0 0-7.855 2.442 11.868 11.868 0 0 0-4.488 1.914A27.5 27.5 0 0 1 3.5 6.535L.66 12.937a91.336 91.336 0 0 1-.132 9.5C.2 27.195 0 30.3 0 32.013A29.393 29.393 0 0 0 1.782 42.9c-.264 2.838 1.122 5.149 4.158 6.865 2.838 1.254 5.677 2.442 8.515 3.7a12.883 12.883 0 0 1 4.29 1.518 10.644 10.644 0 0 0 4.422 1.452 5.559 5.559 0 0 0 1.782-.264 4.361 4.361 0 0 0 3.432 1.122l.528-.066a6.583 6.583 0 0 1 3.894 3.5c.792 1.518 1.452 3.1 2.178 4.686a64.382 64.382 0 0 0 .4 7.855c.264 3.564.462 6.2.462 7.855a37.631 37.631 0 0 1-.462 6.073c-2.508 2.838-3.96 4.356-4.356 4.752a9.891 9.891 0 0 1-5.875 2.838 4.059 4.059 0 0 0-1.782 0 8.309 8.309 0 0 1-1.782.264c-.726 0-1.056-.4-1.056-1.122l.066-.792a5.492 5.492 0 0 1-1.386-3.828 5.676 5.676 0 0 1 .594-2.574 3.909 3.909 0 0 1-.594-2.31c.066-.858.132-1.716.264-2.508a17.038 17.038 0 0 0 .264-2.64 5.717 5.717 0 0 0-.4-2.112 7.045 7.045 0 0 0-1.65-1.452 1.453 1.453 0 0 0-.528.066 7.635 7.635 0 0 0-4.224-1.254 16.494 16.494 0 0 1-4.356-.594c-3.365 1.251-5.08 4.222-5.08 8.908a6.381 6.381 0 0 0 1.122 3.63 29.247 29.247 0 0 0-.66 5.941 12.807 12.807 0 0 0 2.178 7.657 5.936 5.936 0 0 1 3.432 1.716A5.936 5.936 0 0 0 13 103.5h.8a8.627 8.627 0 0 0 5.082 1.452 9.871 9.871 0 0 0 5.078-1.452c6.271-.132 10.693-1.782 13.4-4.884.066-1.98.924-4.884 2.574-8.911a26.675 26.675 0 0 0 2.178-8.911 13.36 13.36 0 0 0-.462-3.63 8.58 8.58 0 0 0 .924-4.026 37.628 37.628 0 0 0-.4-3.828 35.12 35.12 0 0 1-.4-3.7 9.818 9.818 0 0 1 .66-3.63c-1.782-3.3-2.772-5.281-2.772-5.941a4.154 4.154 0 0 1 .594-2.178A17.473 17.473 0 0 0 36.7 49.5a71.4 71.4 0 0 1-7.987-3.5 28.192 28.192 0 0 0-8.313-2.832 10.55 10.55 0 0 1-4.888-6.268 72.6 72.6 0 0 1-1.518-7.789c.264-2.838.528-5.743.792-8.647.264-3.7 1.452-6.139 3.564-7.459a26.3 26.3 0 0 1 6.4-1.32 3.547 3.547 0 0 1 1.386-.33c1.32 0 2.64.924 3.894 2.838a45.8 45.8 0 0 0-.792 5.941c0 4.422 1.188 6.667 3.5 6.667q3.168 0 3.564.594l1.386.066c3.7.066 5.545-1.782 5.545-5.611a17.874 17.874 0 0 0-.857-5.48zM73.003 30.693a3.5 3.5 0 0 0-2.64-1.32l-3.168-.4a24.14 24.14 0 0 1-3.762.33 35.894 35.894 0 0 0-8.251.726 6.9 6.9 0 0 0-3.168 2.112 16.647 16.647 0 0 1-2.64 2.64l-.2 1.518a8.19 8.19 0 0 1 1.254 4.95c0 .594-.066 1.452-.132 2.64-.066 1.122-.132 1.98-.132 2.574a7.61 7.61 0 0 0 .2 1.716 7.049 7.049 0 0 1 .2 1.65 2.442 2.442 0 0 1-.594 1.782 7.175 7.175 0 0 0-.066 1.188 31.858 31.858 0 0 0 1.98 9.835A12.027 12.027 0 0 0 53.996 66c.924.99 1.782 1.98 2.64 2.97l4.818 1.122a13.467 13.467 0 0 1 3.564-1.254 16.3 16.3 0 0 0 3.564-1.254 1.468 1.468 0 0 0 1.65-1.122 4 4 0 0 1 1.056-1.848 9.165 9.165 0 0 0 1.387-4.086l.4-4.356a2.108 2.108 0 0 1-.2-.924v-1.519a.926.926 0 0 0-.792-.924h-.132c-.726 0-1.32.792-1.782 2.442a13.814 13.814 0 0 0-.594 3.366 3.511 3.511 0 0 1-.99 2.244 6.521 6.521 0 0 0-1.386 2.112c-.33.924-.858 1.452-1.65 1.452a7.88 7.88 0 0 1-1.056-.528 1.163 1.163 0 0 1-.594-.858 36.739 36.739 0 0 1-4.95-3.432 18.689 18.689 0 0 1-.924-5.082 6.062 6.062 0 0 1 1.716-4.554 9.992 9.992 0 0 1-.132-1.98 25.634 25.634 0 0 1 .264-3.168 25.636 25.636 0 0 0 .264-3.168 15.349 15.349 0 0 0-.264-2.442c-.132-.792-.2-1.584-.264-2.376a4.984 4.984 0 0 1 1.32-3.564l.4-.066c.264 0 .528.066.792.066a4.122 4.122 0 0 0 .792.066l.4-.066c1.122.4 1.914 1.782 2.31 4.224.462 2.838 1.122 4.554 1.848 5.347l.594.066a1.268 1.268 0 0 0 .792-.264 6.544 6.544 0 0 1 2.508-1.914 4.35 4.35 0 0 0 1.584-.726 2.246 2.246 0 0 1 1.254-1.782 7.312 7.312 0 0 0 .132-1.254 8.762 8.762 0 0 0-1.332-6.273zM181.782 58.086l-.33-8.977a12.834 12.834 0 0 1-1.122-2.772c-.33-1.056-1.254-1.584-2.706-1.584a17.643 17.643 0 0 0-2.64.066c-.66-.132-1.254-.33-1.914-.528-.924-.066-1.914-.066-2.838-.066a5.955 5.955 0 0 1-2.64-.594c-2.376-1.452-3.564-3.96-3.564-7.591a8.861 8.861 0 0 1 .264-2.31 2.884 2.884 0 0 1 2.046-.594c1.98 0 3.234.528 3.762 1.518a20.836 20.836 0 0 1 .462 2.772 1.656 1.656 0 0 0 1.848 1.518h.066a3.654 3.654 0 0 0 2.376-.99 6.323 6.323 0 0 0 1.65 1.32 2.649 2.649 0 0 0 .99.2 1.241 1.241 0 0 0 1.32-.792 9.925 9.925 0 0 1 0-1.98v-1.916a4.905 4.905 0 0 0-1.85-4.293c-2.97-2.112-5.611-3.1-7.855-3.1a5.928 5.928 0 0 0-1.782.462 4.734 4.734 0 0 1-1.65.462c-.2 0-.528-.066-.924-.066s-.726-.066-.924-.066a1.858 1.858 0 0 0-1.386.66c-1.452-.132-2.9.99-4.29 3.432a5.6 5.6 0 0 1-.924 2.9 6.019 6.019 0 0 0-.924 2.772c0-.4.594 2.706 1.848 9.373.066.066.33.264.792.66a1.76 1.76 0 0 0 .924.462h.264a7.035 7.035 0 0 0 4.554 1.386 27.791 27.791 0 0 0 3.3-.264 26.7 26.7 0 0 1 3.234-.264 4.939 4.939 0 0 1 2.31 4.554c0 .528-.066 1.32-.132 2.376s-.132 1.848-.132 2.376v2.112c-.132.594-.792.924-1.914.858h-.924a2.13 2.13 0 0 1-1.386.528 4.079 4.079 0 0 1-1.779-.588 8.626 8.626 0 0 0-1.782-.792 1.454 1.454 0 0 1-.528.066 2.88 2.88 0 0 1-2.442-1.386c-.528-.858-1.122-1.782-1.65-2.64a7.311 7.311 0 0 0-1.254-.132 2.766 2.766 0 0 0-2.376 1.122 14.431 14.431 0 0 1-.2 3.366c-.33 1.98-.462 3.168-.528 3.366a8.574 8.574 0 0 0 2.046 1.716c.792.4 1.518.792 2.31 1.254a23.29 23.29 0 0 1 7.063.858 16.352 16.352 0 0 0 2.441-1.123 12.835 12.835 0 0 1 1.98-.858 1.064 1.064 0 0 1 .858.4l.4.066c.594.066 1.518-.462 2.772-1.452a10.844 10.844 0 0 1 3.234-3.366 4.98 4.98 0 0 0 2.176-3.897zm-44.158-14.393a1.505 1.505 0 0 1-.462-1.254 4.2 4.2 0 0 1 .462-1.782c.264-.528.528-1.056.792-1.65a7.194 7.194 0 0 0 .2-1.716 2.535 2.535 0 0 1 .594-1.65c2.838.528 4.356 1.98 4.356 4.488a7.208 7.208 0 0 0 .264 2.64 31.977 31.977 0 0 1-6.206.924zm15.247-1.386a20.629 20.629 0 0 1-.264-2.838c0-.2.066-.528.066-.924s.066-.726.066-.858c0-2.112-1.122-3.828-3.3-5.148-1.65-.924-3.366-1.914-5.082-2.838-.33-.066-.858-.066-1.584-.132s-1.32-.066-1.716-.066a4.786 4.786 0 0 0-3.828 1.65 48.738 48.738 0 0 1-3.564 2.508 4.821 4.821 0 0 0-2.112 3.762 13.364 13.364 0 0 1-.594 2.178 6.8 6.8 0 0 0-.4 2.31v.33a3.929 3.929 0 0 0-.924 2.772 16.183 16.183 0 0 0 .33 2.046l1.188 11.683c.792 5.016 2.31 8.317 4.686 10.1a5.322 5.322 0 0 1 .792.924 1.179 1.179 0 0 0 .792.594.921.921 0 0 0 .594-.2 29.519 29.519 0 0 1 5.545-1.117c2.508-.33 4.092-.924 4.818-1.782a16.8 16.8 0 0 0 2.442-4.224 12.257 12.257 0 0 0 1.188-4.554c0-.4-.066-.726-.066-1.122a4.632 4.632 0 0 1-.462-.726c-.264-.33-.4-.462-.594-.462a.5.5 0 0 0-.33.132.514.514 0 0 0-.594.4c-.132.4-.264.594-.528.66a7.188 7.188 0 0 1-2.046 5.082 2.127 2.127 0 0 0-1.65.462 3.291 3.291 0 0 0-1.584.2 6.109 6.109 0 0 1-1.518.264 2.457 2.457 0 0 1-1.32-.462c-2.112-1.65-3.168-4.224-3.168-7.789a15.351 15.351 0 0 0-.264-2.442c-.132-.792-.2-1.584-.264-2.376a3.353 3.353 0 0 1 .2-1.122 3.313 3.313 0 0 0 .792.132 4.491 4.491 0 0 0 2.046-.726 4.75 4.75 0 0 1 2.112-.726 2 2 0 0 1 1.782 1.056 2 2 0 0 0 1.782 1.056 2.25 2.25 0 0 0 1.452-.462 6.606 6.606 0 0 1 2.9-2.046c1.386-.594 2.112-1.452 2.112-2.508a4.472 4.472 0 0 0 .071-2.648zm-30.429-13.924h-.33c-1.452.726-2.838 1.452-4.356 2.112a23.433 23.433 0 0 0-4.092 2.508c-.528-.264-.924-1.254-1.122-2.97-.2-1.518-.66-2.31-1.452-2.31a3.474 3.474 0 0 0-1.782.858 5.885 5.885 0 0 1-1.782.99 1.386 1.386 0 0 1-.66 1.188 3.05 3.05 0 0 0-1.122 1.122 17.271 17.271 0 0 0-1.386 5.082 5.231 5.231 0 0 0 .66 2.64 49.585 49.585 0 0 0 .924 9.373c.33 1.122.594 1.914.726 2.442.264 2.112.462 3.828.528 4.884.4 3.96.792 7.063 1.122 9.307a15.419 15.419 0 0 0 .264 1.716c.2.726.594 1.056 1.122 1.056 1.122 0 1.782-.4 1.848-1.254.132-1.254.33-1.98.528-2.112 1.254-1.32 1.848-3.366 1.848-6.139a25.193 25.193 0 0 1 .066-2.9 7.221 7.221 0 0 0 .594-3.1 12.817 12.817 0 0 0-.132-1.584 24.676 24.676 0 0 1-.858-5.743c-.066-1.98-.066-3.894-.132-5.809a20.882 20.882 0 0 1 4.686-2.772 2.456 2.456 0 0 0 1.65.792 5.966 5.966 0 0 0 2.64-1.254 5.883 5.883 0 0 1 2.838-1.254 2.99 2.99 0 0 1 1.056.2A2.131 2.131 0 0 0 127.59 34l.726-1.848c-1.319-2.713-3.299-3.901-5.874-3.769zm-30.231 32.01l-.132.858a1.454 1.454 0 0 0-.528-.066 4.283 4.283 0 0 0-2.31.99 4.029 4.029 0 0 1-1.98.99c-1.056 0-1.584-2.508-1.584-7.393 0-3.366.99-5.545 3.036-6.469a7.172 7.172 0 0 1 2.244-.858.934.934 0 0 1 .924.594c0 .462.066 1.122.132 2.046s.132 1.584.132 1.98a6.066 6.066 0 0 1-.4 2.178l.33.594-.2 3.762a1.371 1.371 0 0 1 .33.792zm5.743-30.1c-2.772-1.452-4.95-2.244-6.6-2.244-.792 0-2.178.528-4.356 1.65a7.883 7.883 0 0 0-3.564.594 8.57 8.57 0 0 1-3.366 1.452 2.921 2.921 0 0 0-1.188 2.178 4.593 4.593 0 0 1-.726 2.442c-.066-.33-.066.594-.066 2.838a3.43 3.43 0 0 0 .594 2.112l.066.066a1.435 1.435 0 0 1 1.32.528l.4.066a2.338 2.338 0 0 0 1.716-.66 1.052 1.052 0 0 1 .858-.924 1.708 1.708 0 0 0 1.122-.594c1.188-.132 1.848-.924 1.98-2.31a10.79 10.79 0 0 1 .594-3.366 12.847 12.847 0 0 1 2.838-.066c.99 0 1.65.4 1.782 1.122a7.315 7.315 0 0 1 1.32 4.488 14.653 14.653 0 0 1-.4 3.366 9.689 9.689 0 0 1-4.686 1.584 11.293 11.293 0 0 0-4.686 1.386c-1.716 1.188-3.168 3.366-4.356 6.6a1.83 1.83 0 0 0-.858 1.518 10.862 10.862 0 0 1-.264 2.046 10.19 10.19 0 0 0-.264 1.98 19.083 19.083 0 0 0 .528 3.894 10.459 10.459 0 0 0 1.254 3.7 3.213 3.213 0 0 0-.066.792c0 .99.66 1.65 1.98 1.782a7.323 7.323 0 0 1 3.036.924 1.884 1.884 0 0 1 .858 0 3.313 3.313 0 0 0 .792.132.693.693 0 0 0 .594-.33 10.948 10.948 0 0 0 2.046.792 3.112 3.112 0 0 0 2.838-1.848 76.873 76.873 0 0 1 1.65-3.3 1.759 1.759 0 0 1 .594 1.32 3.859 3.859 0 0 1-.264 1.254 4.262 4.262 0 0 0-.264 1.254 2.686 2.686 0 0 0 .528 1.584 1.706 1.706 0 0 0 1.254.858c.726 0 1.188-.4 1.452-1.32.4-1.254.594-1.98.66-2.112a2.815 2.815 0 0 0 2.112-2.574l.264-3.564c.462-2.31.858-4.62 1.122-6.931a15.35 15.35 0 0 0-.264-2.442 14.548 14.548 0 0 1-.264-2.376 3.41 3.41 0 0 1 .792-2.442 34.313 34.313 0 0 0 .594-6.337 17.665 17.665 0 0 0-3.036-10.562z"/><path class="a" d="M215.973 5.742a5.019 5.019 0 0 0-2.178.726 7.21 7.21 0 0 1-2.376.792 2.048 2.048 0 0 1-1.452-.594c-1.386.462-2.244 1.65-2.64 3.5-.066.066-.2 1.65-.4 4.818-.132 1.98-.726 5.545-1.716 10.891a66.3 66.3 0 0 0-1.254 10.891v2.508a8.416 8.416 0 0 0-.594 3.63v3.894a7.763 7.763 0 0 1-.66 1.98 4.978 4.978 0 0 0-.587 1.91 10.527 10.527 0 0 0 .462 2.508 9.255 9.255 0 0 1 .462 2.64 25.341 25.341 0 0 1-1.452 7.327 34.995 34.995 0 0 0-1.65 7.261 31.774 31.774 0 0 1-1.056-7.459l.066-1.254a4.8 4.8 0 0 1-.264-1.65 16.54 16.54 0 0 0-.264-4.026 13.83 13.83 0 0 1-.594-4.026 34.661 34.661 0 0 1 .792-6.4 41.567 41.567 0 0 0 .792-6.337 13.829 13.829 0 0 0-.594-4.026 11.966 11.966 0 0 0 1.122-5.809 68.584 68.584 0 0 0-1.782-12.079c-1.32-5.875-2.442-9.637-3.366-11.353-.594-1.056-1.782-1.518-3.432-1.518a9.792 9.792 0 0 0-5.942 2.311 3.851 3.851 0 0 0-.4 1.716 7.508 7.508 0 0 0 .726 2.64 6.812 6.812 0 0 1 .726 2.574 14.067 14.067 0 0 1 1.32 3.63c.2 1.32.4 2.574.594 3.828l-.528.594a.8.8 0 0 1 .792.924c0-.4-.066.066-.264 1.452a1.6 1.6 0 0 0 .4 1.32 21.175 21.175 0 0 1 .4 5.016 26.318 26.318 0 0 0 .33 5.082 46.724 46.724 0 0 1 .594 7.459 44.3 44.3 0 0 0 .4 6.6c.858 3.036 1.584 5.347 2.112 6.865.792 3.828 1.386 6.8 1.716 8.713.792 2.9 1.32 4.554 1.32 4.95.132 1.056.4 3.5.792 7.393a34.03 34.03 0 0 0 1.188 7.261 3.619 3.619 0 0 0 2.112.924c.792 0 1.98-.594 3.432-1.914l3.168-2.97c1.122-.924 1.65-2.574 1.65-4.884 0-4.026.066-6.271.066-6.6a40.96 40.96 0 0 1-.792-7.987 29.147 29.147 0 0 1 1.65-10.363c.924-.99 1.518-2.838 1.782-5.413.33-2.64.858-4.422 1.65-5.413.066-.066.726-1.782 1.98-4.884a12.383 12.383 0 0 0 1.122-5.082v-.791a15.188 15.188 0 0 0 .462-3.828 29.345 29.345 0 0 1 .924-7.129 32.151 32.151 0 0 0 1.122-7.063c-.075-3.762-.735-5.676-1.989-5.676zM270.033 43.697a1.505 1.505 0 0 1-.462-1.254 4.2 4.2 0 0 1 .462-1.782c.264-.528.528-1.056.792-1.65a7.194 7.194 0 0 0 .2-1.716 2.535 2.535 0 0 1 .594-1.65c2.838.528 4.356 1.98 4.356 4.488a7.208 7.208 0 0 0 .264 2.64 40.242 40.242 0 0 1-6.206.924zm15.247-1.386a20.629 20.629 0 0 1-.264-2.838c0-.2.066-.528.066-.924s.066-.726.066-.858c0-2.112-1.122-3.828-3.3-5.148-1.65-.924-3.366-1.914-5.082-2.838-.33-.066-.858-.066-1.584-.132s-1.32-.066-1.716-.066a4.786 4.786 0 0 0-3.828 1.65 48.738 48.738 0 0 1-3.564 2.508 4.821 4.821 0 0 0-2.112 3.762 13.369 13.369 0 0 1-.594 2.178 6.8 6.8 0 0 0-.4 2.31v.33a3.928 3.928 0 0 0-.924 2.772 16.178 16.178 0 0 0 .33 2.046l1.188 11.683c.792 5.016 2.31 8.317 4.686 10.1a5.324 5.324 0 0 1 .792.924 1 1 0 0 0 .792.594.921.921 0 0 0 .594-.2 29.519 29.519 0 0 1 5.544-1.122c2.508-.33 4.092-.924 4.818-1.782a16.8 16.8 0 0 0 2.442-4.224 12.257 12.257 0 0 0 1.188-4.554c0-.4-.066-.726-.066-1.122a4.636 4.636 0 0 1-.462-.726c-.264-.33-.462-.462-.594-.462a.5.5 0 0 0-.33.132.514.514 0 0 0-.594.4c-.132.4-.264.594-.528.66a7.188 7.188 0 0 1-2.046 5.082 2.127 2.127 0 0 0-1.65.462 3.291 3.291 0 0 0-1.584.2 6.109 6.109 0 0 1-1.518.264 2.457 2.457 0 0 1-1.32-.462c-2.112-1.65-3.168-4.224-3.168-7.789a15.349 15.349 0 0 0-.264-2.442c-.132-.792-.2-1.584-.264-2.376a3.353 3.353 0 0 1 .2-1.122 3.312 3.312 0 0 0 .792.132 4.491 4.491 0 0 0 2.046-.726 4.75 4.75 0 0 1 2.112-.726 2 2 0 0 1 1.782 1.056 2 2 0 0 0 1.782 1.056 2.25 2.25 0 0 0 1.452-.462 6.606 6.606 0 0 1 2.9-2.046c1.386-.594 2.112-1.452 2.112-2.508a5.08 5.08 0 0 0 .066-2.64zm-27.855 22.31c-.792-.528-1.584-1.056-2.31-1.584-.066.594-.066-1.584-.066-6.4a41.071 41.071 0 0 1 .858-7.525c.66-3.5 1.452-5.809 2.376-6.8.2-3.762.33-5.545.33-5.281a18.656 18.656 0 0 0-.132-1.914 183.119 183.119 0 0 1-1.914-25.478V8.383a1.755 1.755 0 0 0-1.65-.924 9.992 9.992 0 0 1-1.98-.132l-2.376 1.848a5.59 5.59 0 0 0-1.122-.264 3.432 3.432 0 0 0-1.32 1.254c-.066 1.254-.132 2.508-.132 3.828a105.207 105.207 0 0 0 1.32 13.663 119.3 119.3 0 0 1 1.32 13.729c0 1.98-.066 4.95-.264 8.911-.2 4.026-.264 6.931-.264 8.977 0 4.752.924 7.723 2.706 8.911l1.518.066a11.746 11.746 0 0 0 4.554-.66 1.827 1.827 0 0 0 .066-.594 3.443 3.443 0 0 0-1.518-2.376zm-14.191 0c-.792-.528-1.584-1.056-2.31-1.584-.066.594-.066-1.584-.066-6.4a41.066 41.066 0 0 1 .858-7.525c.66-3.5 1.452-5.809 2.376-6.8.2-3.762.33-5.545.33-5.281a18.639 18.639 0 0 0-.132-1.914 183.138 183.138 0 0 1-1.914-25.478V8.383a1.755 1.755 0 0 0-1.65-.924 9.992 9.992 0 0 1-1.98-.132l-2.376 1.848a5.59 5.59 0 0 0-1.122-.264 3.432 3.432 0 0 0-1.32 1.254c-.066 1.254-.132 2.508-.132 3.828a105.207 105.207 0 0 0 1.32 13.663 119.31 119.31 0 0 1 1.32 13.729c0 1.98-.066 4.95-.264 8.911-.2 4.026-.264 6.931-.264 8.977 0 4.752.924 7.723 2.706 8.911l1.518.066a11.746 11.746 0 0 0 4.554-.66 1.827 1.827 0 0 0 .066-.594 3.846 3.846 0 0 0-1.518-2.376zm-13.135-24.357c-.132-1.452-.2-2.508-.2-3.234 0-.792.066-1.584.132-2.376a12.808 12.808 0 0 1-.99-5.743 2.139 2.139 0 0 0-2.112-1.122h-2.046a5.117 5.117 0 0 0-2.112 4.356 16.515 16.515 0 0 0 .33 3.1 17.209 17.209 0 0 1 .33 3.168 13.342 13.342 0 0 1-.4 2.244 34.3 34.3 0 0 0-.33 5.809c0 1.98.132 4.884.4 8.845.264 3.894.4 6.865.4 8.845a7.288 7.288 0 0 0 1.386 4.356c.594 0 .924-.066.99-.264a1.223 1.223 0 0 0 .594-1.122 2.246 2.246 0 0 0-.066-.66v-.726c1.518-.462 2.31-2.574 2.31-6.337 0-.924-.066-2.508-.264-4.554q-.2-2.277-.2-4.554v-.858a8.986 8.986 0 0 0 1.782-5.875 11.024 11.024 0 0 0 .066-3.3zm-.33-29.307q0-1.683-2.376-3.366h-.924a2.732 2.732 0 0 0-2.376.792.837.837 0 0 0-.4-.066 1.035 1.035 0 0 0-.924.594 11 11 0 0 0-.528 1.32 9.259 9.259 0 0 1-.4 2.706 9.258 9.258 0 0 0-.4 2.706 5.148 5.148 0 0 0 .2 1.452 2.961 2.961 0 0 1 .462 1.98 1.925 1.925 0 0 0 .594 1.848l.594.066a1.994 1.994 0 0 0 1.65-.594c-.066-1.254.264-1.848 1.122-1.848a6.5 6.5 0 0 1 1.122.132 6.5 6.5 0 0 0 1.122.132c.99 0 1.452-.4 1.452-1.122v-6.732z"/></svg>
